<?xml version="1.0" encoding="utf-8" standalone="no"?>
<!DOCTYPE svg PUBLIC "-//W3C//DTD SVG 1.1//EN"
  "http://www.w3.org/Graphics/SVG/1.1/DTD/svg11.dtd">
<svg xmlns:xlink="http://www.w3.org/1999/xlink" width="752.6505pt" height="344.55475pt" viewBox="0 0 752.6505 344.55475" xmlns="http://www.w3.org/2000/svg" version="1.1">
 <metadata>
  <rdf:RDF xmlns:dc="http://purl.org/dc/elements/1.1/" xmlns:cc="http://creativecommons.org/ns#" xmlns:rdf="http://www.w3.org/1999/02/22-rdf-syntax-ns#">
   <cc:Work>
    <dc:type rdf:resource="http://purl.org/dc/dcmitype/StillImage"/>
    <dc:date>2025-01-30T15:16:06.688135</dc:date>
    <dc:format>image/svg+xml</dc:format>
    <dc:creator>
     <cc:Agent>
      <dc:title>Matplotlib v3.7.1, https://matplotlib.org/</dc:title>
     </cc:Agent>
    </dc:creator>
   </cc:Work>
  </rdf:RDF>
 </metadata>
 <defs>
  <style type="text/css">*{stroke-linejoin: round; stroke-linecap: butt}</style>
 </defs>
 <g id="figure_1">
  <g id="patch_1">
   <path d="M 0 344.55475 
L 752.6505 344.55475 
L 752.6505 0 
L 0 0 
z
" style="fill: #ffffff"/>
  </g>
  <g id="axes_1">
   <g id="patch_2">
    <path d="M 77.9225 273.335375 
L 435.0425 273.335375 
L 435.0425 7.223375 
L 77.9225 7.223375 
z
" style="fill: #ffffff"/>
   </g>
   <g id="matplotlib.axis_1">
    <g id="xtick_1">
     <g id="line2d_1">
      <path d="M 340.391491 273.335375 
L 340.391491 7.223375 
" clip-path="url(#p35e4467a97)" style="fill: none; stroke: #cccccc; stroke-width: 2; stroke-linecap: round"/>
     </g>
     <g id="text_1">
      <!-- $\mathdefault{10^{9}}$ -->
      <g style="fill: #262626" transform="translate(321.031491 305.551937) scale(0.22 -0.22)">
       <defs>
        <path id="DejaVuSans-31" d="M 794 531 
L 1825 531 
L 1825 4091 
L 703 3866 
L 703 4441 
L 1819 4666 
L 2450 4666 
L 2450 531 
L 3481 531 
L 3481 0 
L 794 0 
L 794 531 
z
" transform="scale(0.015625)"/>
        <path id="DejaVuSans-30" d="M 2034 4250 
Q 1547 4250 1301 3770 
Q 1056 3291 1056 2328 
Q 1056 1369 1301 889 
Q 1547 409 2034 409 
Q 2525 409 2770 889 
Q 3016 1369 3016 2328 
Q 3016 3291 2770 3770 
Q 2525 4250 2034 4250 
z
M 2034 4750 
Q 2819 4750 3233 4129 
Q 3647 3509 3647 2328 
Q 3647 1150 3233 529 
Q 2819 -91 2034 -91 
Q 1250 -91 836 529 
Q 422 1150 422 2328 
Q 422 3509 836 4129 
Q 1250 4750 2034 4750 
z
" transform="scale(0.015625)"/>
        <path id="DejaVuSans-39" d="M 703 97 
L 703 672 
Q 941 559 1184 500 
Q 1428 441 1663 441 
Q 2288 441 2617 861 
Q 2947 1281 2994 2138 
Q 2813 1869 2534 1725 
Q 2256 1581 1919 1581 
Q 1219 1581 811 2004 
Q 403 2428 403 3163 
Q 403 3881 828 4315 
Q 1253 4750 1959 4750 
Q 2769 4750 3195 4129 
Q 3622 3509 3622 2328 
Q 3622 1225 3098 567 
Q 2575 -91 1691 -91 
Q 1453 -91 1209 -44 
Q 966 3 703 97 
z
M 1959 2075 
Q 2384 2075 2632 2365 
Q 2881 2656 2881 3163 
Q 2881 3666 2632 3958 
Q 2384 4250 1959 4250 
Q 1534 4250 1286 3958 
Q 1038 3666 1038 3163 
Q 1038 2656 1286 2365 
Q 1534 2075 1959 2075 
z
" transform="scale(0.015625)"/>
       </defs>
       <use xlink:href="#DejaVuSans-31" transform="translate(0 0.765625)"/>
       <use xlink:href="#DejaVuSans-30" transform="translate(63.623047 0.765625)"/>
       <use xlink:href="#DejaVuSans-39" transform="translate(128.203125 39.046875) scale(0.7)"/>
      </g>
     </g>
    </g>
    <g id="xtick_2"/>
    <g id="xtick_3"/>
    <g id="xtick_4"/>
    <g id="xtick_5"/>
    <g id="xtick_6"/>
    <g id="xtick_7"/>
    <g id="xtick_8"/>
    <g id="xtick_9"/>
    <g id="xtick_10"/>
    <g id="text_2">
     <!-- DiskWriteBytes -->
     <g style="fill: #262626" transform="translate(165.35375 332.3635) scale(0.24 -0.24)">
      <defs>
       <path id="DejaVuSans-44" d="M 1259 4147 
L 1259 519 
L 2022 519 
Q 2988 519 3436 956 
Q 3884 1394 3884 2338 
Q 3884 3275 3436 3711 
Q 2988 4147 2022 4147 
L 1259 4147 
z
M 628 4666 
L 1925 4666 
Q 3281 4666 3915 4102 
Q 4550 3538 4550 2338 
Q 4550 1131 3912 565 
Q 3275 0 1925 0 
L 628 0 
L 628 4666 
z
" transform="scale(0.015625)"/>
       <path id="DejaVuSans-69" d="M 603 3500 
L 1178 3500 
L 1178 0 
L 603 0 
L 603 3500 
z
M 603 4863 
L 1178 4863 
L 1178 4134 
L 603 4134 
L 603 4863 
z
" transform="scale(0.015625)"/>
       <path id="DejaVuSans-73" d="M 2834 3397 
L 2834 2853 
Q 2591 2978 2328 3040 
Q 2066 3103 1784 3103 
Q 1356 3103 1142 2972 
Q 928 2841 928 2578 
Q 928 2378 1081 2264 
Q 1234 2150 1697 2047 
L 1894 2003 
Q 2506 1872 2764 1633 
Q 3022 1394 3022 966 
Q 3022 478 2636 193 
Q 2250 -91 1575 -91 
Q 1294 -91 989 -36 
Q 684 19 347 128 
L 347 722 
Q 666 556 975 473 
Q 1284 391 1588 391 
Q 1994 391 2212 530 
Q 2431 669 2431 922 
Q 2431 1156 2273 1281 
Q 2116 1406 1581 1522 
L 1381 1569 
Q 847 1681 609 1914 
Q 372 2147 372 2553 
Q 372 3047 722 3315 
Q 1072 3584 1716 3584 
Q 2034 3584 2315 3537 
Q 2597 3491 2834 3397 
z
" transform="scale(0.015625)"/>
       <path id="DejaVuSans-6b" d="M 581 4863 
L 1159 4863 
L 1159 1991 
L 2875 3500 
L 3609 3500 
L 1753 1863 
L 3688 0 
L 2938 0 
L 1159 1709 
L 1159 0 
L 581 0 
L 581 4863 
z
" transform="scale(0.015625)"/>
       <path id="DejaVuSans-57" d="M 213 4666 
L 850 4666 
L 1831 722 
L 2809 4666 
L 3519 4666 
L 4500 722 
L 5478 4666 
L 6119 4666 
L 4947 0 
L 4153 0 
L 3169 4050 
L 2175 0 
L 1381 0 
L 213 4666 
z
" transform="scale(0.015625)"/>
       <path id="DejaVuSans-72" d="M 2631 2963 
Q 2534 3019 2420 3045 
Q 2306 3072 2169 3072 
Q 1681 3072 1420 2755 
Q 1159 2438 1159 1844 
L 1159 0 
L 581 0 
L 581 3500 
L 1159 3500 
L 1159 2956 
Q 1341 3275 1631 3429 
Q 1922 3584 2338 3584 
Q 2397 3584 2469 3576 
Q 2541 3569 2628 3553 
L 2631 2963 
z
" transform="scale(0.015625)"/>
       <path id="DejaVuSans-74" d="M 1172 4494 
L 1172 3500 
L 2356 3500 
L 2356 3053 
L 1172 3053 
L 1172 1153 
Q 1172 725 1289 603 
Q 1406 481 1766 481 
L 2356 481 
L 2356 0 
L 1766 0 
Q 1100 0 847 248 
Q 594 497 594 1153 
L 594 3053 
L 172 3053 
L 172 3500 
L 594 3500 
L 594 4494 
L 1172 4494 
z
" transform="scale(0.015625)"/>
       <path id="DejaVuSans-65" d="M 3597 1894 
L 3597 1613 
L 953 1613 
Q 991 1019 1311 708 
Q 1631 397 2203 397 
Q 2534 397 2845 478 
Q 3156 559 3463 722 
L 3463 178 
Q 3153 47 2828 -22 
Q 2503 -91 2169 -91 
Q 1331 -91 842 396 
Q 353 884 353 1716 
Q 353 2575 817 3079 
Q 1281 3584 2069 3584 
Q 2775 3584 3186 3129 
Q 3597 2675 3597 1894 
z
M 3022 2063 
Q 3016 2534 2758 2815 
Q 2500 3097 2075 3097 
Q 1594 3097 1305 2825 
Q 1016 2553 972 2059 
L 3022 2063 
z
" transform="scale(0.015625)"/>
       <path id="DejaVuSans-42" d="M 1259 2228 
L 1259 519 
L 2272 519 
Q 2781 519 3026 730 
Q 3272 941 3272 1375 
Q 3272 1813 3026 2020 
Q 2781 2228 2272 2228 
L 1259 2228 
z
M 1259 4147 
L 1259 2741 
L 2194 2741 
Q 2656 2741 2882 2914 
Q 3109 3088 3109 3444 
Q 3109 3797 2882 3972 
Q 2656 4147 2194 4147 
L 1259 4147 
z
M 628 4666 
L 2241 4666 
Q 2963 4666 3353 4366 
Q 3744 4066 3744 3513 
Q 3744 3084 3544 2831 
Q 3344 2578 2956 2516 
Q 3422 2416 3680 2098 
Q 3938 1781 3938 1306 
Q 3938 681 3513 340 
Q 3088 0 2303 0 
L 628 0 
L 628 4666 
z
" transform="scale(0.015625)"/>
       <path id="DejaVuSans-79" d="M 2059 -325 
Q 1816 -950 1584 -1140 
Q 1353 -1331 966 -1331 
L 506 -1331 
L 506 -850 
L 844 -850 
Q 1081 -850 1212 -737 
Q 1344 -625 1503 -206 
L 1606 56 
L 191 3500 
L 800 3500 
L 1894 763 
L 2988 3500 
L 3597 3500 
L 2059 -325 
z
" transform="scale(0.015625)"/>
      </defs>
      <use xlink:href="#DejaVuSans-44"/>
      <use xlink:href="#DejaVuSans-69" x="77.001953"/>
      <use xlink:href="#DejaVuSans-73" x="104.785156"/>
      <use xlink:href="#DejaVuSans-6b" x="156.884766"/>
      <use xlink:href="#DejaVuSans-57" x="214.794922"/>
      <use xlink:href="#DejaVuSans-72" x="309.171875"/>
      <use xlink:href="#DejaVuSans-69" x="350.285156"/>
      <use xlink:href="#DejaVuSans-74" x="378.068359"/>
      <use xlink:href="#DejaVuSans-65" x="417.277344"/>
      <use xlink:href="#DejaVuSans-42" x="478.800781"/>
      <use xlink:href="#DejaVuSans-79" x="547.404297"/>
      <use xlink:href="#DejaVuSans-74" x="606.583984"/>
      <use xlink:href="#DejaVuSans-65" x="645.792969"/>
      <use xlink:href="#DejaVuSans-73" x="707.316406"/>
     </g>
    </g>
   </g>
   <g id="matplotlib.axis_2">
    <g id="ytick_1">
     <g id="line2d_2">
      <path d="M 77.9225 233.511564 
L 435.0425 233.511564 
" clip-path="url(#p35e4467a97)" style="fill: none; stroke: #cccccc; stroke-width: 2; stroke-linecap: round"/>
     </g>
     <g id="text_3">
      <!-- 20 -->
      <g style="fill: #262626" transform="translate(34.4275 241.869845) scale(0.22 -0.22)">
       <defs>
        <path id="DejaVuSans-32" d="M 1228 531 
L 3431 531 
L 3431 0 
L 469 0 
L 469 531 
Q 828 903 1448 1529 
Q 2069 2156 2228 2338 
Q 2531 2678 2651 2914 
Q 2772 3150 2772 3378 
Q 2772 3750 2511 3984 
Q 2250 4219 1831 4219 
Q 1534 4219 1204 4116 
Q 875 4013 500 3803 
L 500 4441 
Q 881 4594 1212 4672 
Q 1544 4750 1819 4750 
Q 2544 4750 2975 4387 
Q 3406 4025 3406 3419 
Q 3406 3131 3298 2873 
Q 3191 2616 2906 2266 
Q 2828 2175 2409 1742 
Q 1991 1309 1228 531 
z
" transform="scale(0.015625)"/>
       </defs>
       <use xlink:href="#DejaVuSans-32"/>
       <use xlink:href="#DejaVuSans-30" x="63.623047"/>
      </g>
     </g>
    </g>
    <g id="ytick_2">
     <g id="line2d_3">
      <path d="M 77.9225 170.543732 
L 435.0425 170.543732 
" clip-path="url(#p35e4467a97)" style="fill: none; stroke: #cccccc; stroke-width: 2; stroke-linecap: round"/>
     </g>
     <g id="text_4">
      <!-- 40 -->
      <g style="fill: #262626" transform="translate(34.4275 178.902013) scale(0.22 -0.22)">
       <defs>
        <path id="DejaVuSans-34" d="M 2419 4116 
L 825 1625 
L 2419 1625 
L 2419 4116 
z
M 2253 4666 
L 3047 4666 
L 3047 1625 
L 3713 1625 
L 3713 1100 
L 3047 1100 
L 3047 0 
L 2419 0 
L 2419 1100 
L 313 1100 
L 313 1709 
L 2253 4666 
z
" transform="scale(0.015625)"/>
       </defs>
       <use xlink:href="#DejaVuSans-34"/>
       <use xlink:href="#DejaVuSans-30" x="63.623047"/>
      </g>
     </g>
    </g>
    <g id="ytick_3">
     <g id="line2d_4">
      <path d="M 77.9225 107.5759 
L 435.0425 107.5759 
" clip-path="url(#p35e4467a97)" style="fill: none; stroke: #cccccc; stroke-width: 2; stroke-linecap: round"/>
     </g>
     <g id="text_5">
      <!-- 60 -->
      <g style="fill: #262626" transform="translate(34.4275 115.934182) scale(0.22 -0.22)">
       <defs>
        <path id="DejaVuSans-36" d="M 2113 2584 
Q 1688 2584 1439 2293 
Q 1191 2003 1191 1497 
Q 1191 994 1439 701 
Q 1688 409 2113 409 
Q 2538 409 2786 701 
Q 3034 994 3034 1497 
Q 3034 2003 2786 2293 
Q 2538 2584 2113 2584 
z
M 3366 4563 
L 3366 3988 
Q 3128 4100 2886 4159 
Q 2644 4219 2406 4219 
Q 1781 4219 1451 3797 
Q 1122 3375 1075 2522 
Q 1259 2794 1537 2939 
Q 1816 3084 2150 3084 
Q 2853 3084 3261 2657 
Q 3669 2231 3669 1497 
Q 3669 778 3244 343 
Q 2819 -91 2113 -91 
Q 1303 -91 875 529 
Q 447 1150 447 2328 
Q 447 3434 972 4092 
Q 1497 4750 2381 4750 
Q 2619 4750 2861 4703 
Q 3103 4656 3366 4563 
z
" transform="scale(0.015625)"/>
       </defs>
       <use xlink:href="#DejaVuSans-36"/>
       <use xlink:href="#DejaVuSans-30" x="63.623047"/>
      </g>
     </g>
    </g>
    <g id="ytick_4">
     <g id="line2d_5">
      <path d="M 77.9225 44.608069 
L 435.0425 44.608069 
" clip-path="url(#p35e4467a97)" style="fill: none; stroke: #cccccc; stroke-width: 2; stroke-linecap: round"/>
     </g>
     <g id="text_6">
      <!-- 80 -->
      <g style="fill: #262626" transform="translate(34.4275 52.96635) scale(0.22 -0.22)">
       <defs>
        <path id="DejaVuSans-38" d="M 2034 2216 
Q 1584 2216 1326 1975 
Q 1069 1734 1069 1313 
Q 1069 891 1326 650 
Q 1584 409 2034 409 
Q 2484 409 2743 651 
Q 3003 894 3003 1313 
Q 3003 1734 2745 1975 
Q 2488 2216 2034 2216 
z
M 1403 2484 
Q 997 2584 770 2862 
Q 544 3141 544 3541 
Q 544 4100 942 4425 
Q 1341 4750 2034 4750 
Q 2731 4750 3128 4425 
Q 3525 4100 3525 3541 
Q 3525 3141 3298 2862 
Q 3072 2584 2669 2484 
Q 3125 2378 3379 2068 
Q 3634 1759 3634 1313 
Q 3634 634 3220 271 
Q 2806 -91 2034 -91 
Q 1263 -91 848 271 
Q 434 634 434 1313 
Q 434 1759 690 2068 
Q 947 2378 1403 2484 
z
M 1172 3481 
Q 1172 3119 1398 2916 
Q 1625 2713 2034 2713 
Q 2441 2713 2670 2916 
Q 2900 3119 2900 3481 
Q 2900 3844 2670 4047 
Q 2441 4250 2034 4250 
Q 1625 4250 1398 4047 
Q 1172 3844 1172 3481 
z
" transform="scale(0.015625)"/>
       </defs>
       <use xlink:href="#DejaVuSans-38"/>
       <use xlink:href="#DejaVuSans-30" x="63.623047"/>
      </g>
     </g>
    </g>
    <g id="text_7">
     <!-- CpuTotal -->
     <g style="fill: #262626" transform="translate(25.43625 191.905625) rotate(-90) scale(0.24 -0.24)">
      <defs>
       <path id="DejaVuSans-43" d="M 4122 4306 
L 4122 3641 
Q 3803 3938 3442 4084 
Q 3081 4231 2675 4231 
Q 1875 4231 1450 3742 
Q 1025 3253 1025 2328 
Q 1025 1406 1450 917 
Q 1875 428 2675 428 
Q 3081 428 3442 575 
Q 3803 722 4122 1019 
L 4122 359 
Q 3791 134 3420 21 
Q 3050 -91 2638 -91 
Q 1578 -91 968 557 
Q 359 1206 359 2328 
Q 359 3453 968 4101 
Q 1578 4750 2638 4750 
Q 3056 4750 3426 4639 
Q 3797 4528 4122 4306 
z
" transform="scale(0.015625)"/>
       <path id="DejaVuSans-70" d="M 1159 525 
L 1159 -1331 
L 581 -1331 
L 581 3500 
L 1159 3500 
L 1159 2969 
Q 1341 3281 1617 3432 
Q 1894 3584 2278 3584 
Q 2916 3584 3314 3078 
Q 3713 2572 3713 1747 
Q 3713 922 3314 415 
Q 2916 -91 2278 -91 
Q 1894 -91 1617 61 
Q 1341 213 1159 525 
z
M 3116 1747 
Q 3116 2381 2855 2742 
Q 2594 3103 2138 3103 
Q 1681 3103 1420 2742 
Q 1159 2381 1159 1747 
Q 1159 1113 1420 752 
Q 1681 391 2138 391 
Q 2594 391 2855 752 
Q 3116 1113 3116 1747 
z
" transform="scale(0.015625)"/>
       <path id="DejaVuSans-75" d="M 544 1381 
L 544 3500 
L 1119 3500 
L 1119 1403 
Q 1119 906 1312 657 
Q 1506 409 1894 409 
Q 2359 409 2629 706 
Q 2900 1003 2900 1516 
L 2900 3500 
L 3475 3500 
L 3475 0 
L 2900 0 
L 2900 538 
Q 2691 219 2414 64 
Q 2138 -91 1772 -91 
Q 1169 -91 856 284 
Q 544 659 544 1381 
z
M 1991 3584 
L 1991 3584 
z
" transform="scale(0.015625)"/>
       <path id="DejaVuSans-54" d="M -19 4666 
L 3928 4666 
L 3928 4134 
L 2272 4134 
L 2272 0 
L 1638 0 
L 1638 4134 
L -19 4134 
L -19 4666 
z
" transform="scale(0.015625)"/>
       <path id="DejaVuSans-6f" d="M 1959 3097 
Q 1497 3097 1228 2736 
Q 959 2375 959 1747 
Q 959 1119 1226 758 
Q 1494 397 1959 397 
Q 2419 397 2687 759 
Q 2956 1122 2956 1747 
Q 2956 2369 2687 2733 
Q 2419 3097 1959 3097 
z
M 1959 3584 
Q 2709 3584 3137 3096 
Q 3566 2609 3566 1747 
Q 3566 888 3137 398 
Q 2709 -91 1959 -91 
Q 1206 -91 779 398 
Q 353 888 353 1747 
Q 353 2609 779 3096 
Q 1206 3584 1959 3584 
z
" transform="scale(0.015625)"/>
       <path id="DejaVuSans-61" d="M 2194 1759 
Q 1497 1759 1228 1600 
Q 959 1441 959 1056 
Q 959 750 1161 570 
Q 1363 391 1709 391 
Q 2188 391 2477 730 
Q 2766 1069 2766 1631 
L 2766 1759 
L 2194 1759 
z
M 3341 1997 
L 3341 0 
L 2766 0 
L 2766 531 
Q 2569 213 2275 61 
Q 1981 -91 1556 -91 
Q 1019 -91 701 211 
Q 384 513 384 1019 
Q 384 1609 779 1909 
Q 1175 2209 1959 2209 
L 2766 2209 
L 2766 2266 
Q 2766 2663 2505 2880 
Q 2244 3097 1772 3097 
Q 1472 3097 1187 3025 
Q 903 2953 641 2809 
L 641 3341 
Q 956 3463 1253 3523 
Q 1550 3584 1831 3584 
Q 2591 3584 2966 3190 
Q 3341 2797 3341 1997 
z
" transform="scale(0.015625)"/>
       <path id="DejaVuSans-6c" d="M 603 4863 
L 1178 4863 
L 1178 0 
L 603 0 
L 603 4863 
z
" transform="scale(0.015625)"/>
      </defs>
      <use xlink:href="#DejaVuSans-43"/>
      <use xlink:href="#DejaVuSans-70" x="69.824219"/>
      <use xlink:href="#DejaVuSans-75" x="133.300781"/>
      <use xlink:href="#DejaVuSans-54" x="196.679688"/>
      <use xlink:href="#DejaVuSans-6f" x="240.763672"/>
      <use xlink:href="#DejaVuSans-74" x="301.945312"/>
      <use xlink:href="#DejaVuSans-61" x="341.154297"/>
      <use xlink:href="#DejaVuSans-6c" x="402.433594"/>
     </g>
    </g>
   </g>
   <g id="PathCollection_1">
    <path d="M 218.014863 265.734471 
C 219.606082 265.734471 221.132343 265.102274 222.257504 263.977112 
C 223.382666 262.851951 224.014863 261.32569 224.014863 259.734471 
C 224.014863 258.143253 223.382666 256.616992 222.257504 255.491831 
C 221.132343 254.366669 219.606082 253.734471 218.014863 253.734471 
C 216.423645 253.734471 214.897384 254.366669 213.772223 255.491831 
C 212.647061 256.616992 212.014863 258.143253 212.014863 259.734471 
C 212.014863 261.32569 212.647061 262.851951 213.772223 263.977112 
C 214.897384 265.102274 216.423645 265.734471 218.014863 265.734471 
z
" clip-path="url(#p35e4467a97)" style="fill: #4c72b0; stroke: #ffffff; stroke-width: 0.96"/>
    <path d="M 218.014863 265.734471 
C 219.606082 265.734471 221.132343 265.102274 222.257504 263.977112 
C 223.382666 262.851951 224.014863 261.32569 224.014863 259.734471 
C 224.014863 258.143253 223.382666 256.616992 222.257504 255.491831 
C 221.132343 254.366669 219.606082 253.734471 218.014863 253.734471 
C 216.423645 253.734471 214.897384 254.366669 213.772223 255.491831 
C 212.647061 256.616992 212.014863 258.143253 212.014863 259.734471 
C 212.014863 261.32569 212.647061 262.851951 213.772223 263.977112 
C 214.897384 265.102274 216.423645 265.734471 218.014863 265.734471 
z
" clip-path="url(#p35e4467a97)" style="fill: #4c72b0; stroke: #ffffff; stroke-width: 0.96"/>
    <path d="M 218.014863 265.734471 
C 219.606082 265.734471 221.132343 265.102274 222.257504 263.977112 
C 223.382666 262.851951 224.014863 261.32569 224.014863 259.734471 
C 224.014863 258.143253 223.382666 256.616992 222.257504 255.491831 
C 221.132343 254.366669 219.606082 253.734471 218.014863 253.734471 
C 216.423645 253.734471 214.897384 254.366669 213.772223 255.491831 
C 212.647061 256.616992 212.014863 258.143253 212.014863 259.734471 
C 212.014863 261.32569 212.647061 262.851951 213.772223 263.977112 
C 214.897384 265.102274 216.423645 265.734471 218.014863 265.734471 
z
" clip-path="url(#p35e4467a97)" style="fill: #4c72b0; stroke: #ffffff; stroke-width: 0.96"/>
    <path d="M 218.014863 265.734471 
C 219.606082 265.734471 221.132343 265.102274 222.257504 263.977112 
C 223.382666 262.851951 224.014863 261.32569 224.014863 259.734471 
C 224.014863 258.143253 223.382666 256.616992 222.257504 255.491831 
C 221.132343 254.366669 219.606082 253.734471 218.014863 253.734471 
C 216.423645 253.734471 214.897384 254.366669 213.772223 255.491831 
C 212.647061 256.616992 212.014863 258.143253 212.014863 259.734471 
C 212.014863 261.32569 212.647061 262.851951 213.772223 263.977112 
C 214.897384 265.102274 216.423645 265.734471 218.014863 265.734471 
z
" clip-path="url(#p35e4467a97)" style="fill: #4c72b0; stroke: #ffffff; stroke-width: 0.96"/>
    <path d="M 154.015427 267.239375 
L 157.015427 264.239375 
L 160.015427 267.239375 
L 163.015427 264.239375 
L 160.015427 261.239375 
L 163.015427 258.239375 
L 160.015427 255.239375 
L 157.015427 258.239375 
L 154.015427 255.239375 
L 151.015427 258.239375 
L 154.015427 261.239375 
L 151.015427 264.239375 
z
" clip-path="url(#p35e4467a97)" style="fill: #4c72b0; stroke: #ffffff; stroke-width: 0.96"/>
    <path d="M 154.015427 267.239375 
L 157.015427 264.239375 
L 160.015427 267.239375 
L 163.015427 264.239375 
L 160.015427 261.239375 
L 163.015427 258.239375 
L 160.015427 255.239375 
L 157.015427 258.239375 
L 154.015427 255.239375 
L 151.015427 258.239375 
L 154.015427 261.239375 
L 151.015427 264.239375 
z
" clip-path="url(#p35e4467a97)" style="fill: #4c72b0; stroke: #ffffff; stroke-width: 0.96"/>
    <path d="M 154.015427 267.239375 
L 157.015427 264.239375 
L 160.015427 267.239375 
L 163.015427 264.239375 
L 160.015427 261.239375 
L 163.015427 258.239375 
L 160.015427 255.239375 
L 157.015427 258.239375 
L 154.015427 255.239375 
L 151.015427 258.239375 
L 154.015427 261.239375 
L 151.015427 264.239375 
z
" clip-path="url(#p35e4467a97)" style="fill: #4c72b0; stroke: #ffffff; stroke-width: 0.96"/>
    <path d="M 154.015427 267.239375 
L 157.015427 264.239375 
L 160.015427 267.239375 
L 163.015427 264.239375 
L 160.015427 261.239375 
L 163.015427 258.239375 
L 160.015427 255.239375 
L 157.015427 258.239375 
L 154.015427 255.239375 
L 151.015427 258.239375 
L 154.015427 261.239375 
L 151.015427 264.239375 
z
" clip-path="url(#p35e4467a97)" style="fill: #4c72b0; stroke: #ffffff; stroke-width: 0.96"/>
    <path d="M 415.809773 25.319375 
L 418.809773 22.319375 
L 421.809773 25.319375 
L 424.809773 22.319375 
L 421.809773 19.319375 
L 424.809773 16.319375 
L 421.809773 13.319375 
L 418.809773 16.319375 
L 415.809773 13.319375 
L 412.809773 16.319375 
L 415.809773 19.319375 
L 412.809773 22.319375 
z
" clip-path="url(#p35e4467a97)" style="fill: #dd8452; stroke: #ffffff; stroke-width: 0.96"/>
    <path d="M 109.511642 39.165732 
L 112.511642 36.165732 
L 115.511642 39.165732 
L 118.511642 36.165732 
L 115.511642 33.165732 
L 118.511642 30.165732 
L 115.511642 27.165732 
L 112.511642 30.165732 
L 109.511642 27.165732 
L 106.511642 30.165732 
L 109.511642 33.165732 
L 106.511642 36.165732 
z
" clip-path="url(#p35e4467a97)" style="fill: #55a868; stroke: #ffffff; stroke-width: 0.96"/>
    <path d="M 94.155227 43.931637 
C 95.746446 43.931637 97.272706 43.299439 98.397868 42.174278 
C 99.523029 41.049116 100.155227 39.522856 100.155227 37.931637 
C 100.155227 36.340419 99.523029 34.814158 98.397868 33.688996 
C 97.272706 32.563835 95.746446 31.931637 94.155227 31.931637 
C 92.564009 31.931637 91.037748 32.563835 89.912587 33.688996 
C 88.787425 34.814158 88.155227 36.340419 88.155227 37.931637 
C 88.155227 39.522856 88.787425 41.049116 89.912587 42.174278 
C 91.037748 43.299439 92.564009 43.931637 94.155227 43.931637 
z
" clip-path="url(#p35e4467a97)" style="fill: #55a868; stroke: #ffffff; stroke-width: 0.96"/>
    <path d="M 94.155227 43.931637 
C 95.746446 43.931637 97.272706 43.299439 98.397868 42.174278 
C 99.523029 41.049116 100.155227 39.522856 100.155227 37.931637 
C 100.155227 36.340419 99.523029 34.814158 98.397868 33.688996 
C 97.272706 32.563835 95.746446 31.931637 94.155227 31.931637 
C 92.564009 31.931637 91.037748 32.563835 89.912587 33.688996 
C 88.787425 34.814158 88.155227 36.340419 88.155227 37.931637 
C 88.155227 39.522856 88.787425 41.049116 89.912587 42.174278 
C 91.037748 43.299439 92.564009 43.931637 94.155227 43.931637 
z
" clip-path="url(#p35e4467a97)" style="fill: #55a868; stroke: #ffffff; stroke-width: 0.96"/>
    <path d="M 163.962838 42.291068 
L 166.962838 39.291068 
L 169.962838 42.291068 
L 172.962838 39.291068 
L 169.962838 36.291068 
L 172.962838 33.291068 
L 169.962838 30.291068 
L 166.962838 33.291068 
L 163.962838 30.291068 
L 160.962838 33.291068 
L 163.962838 36.291068 
L 160.962838 39.291068 
z
" clip-path="url(#p35e4467a97)" style="fill: #55a868; stroke: #ffffff; stroke-width: 0.96"/>
    <path d="M 163.962838 42.291068 
L 166.962838 39.291068 
L 169.962838 42.291068 
L 172.962838 39.291068 
L 169.962838 36.291068 
L 172.962838 33.291068 
L 169.962838 30.291068 
L 166.962838 33.291068 
L 163.962838 30.291068 
L 160.962838 33.291068 
L 163.962838 36.291068 
L 160.962838 39.291068 
z
" clip-path="url(#p35e4467a97)" style="fill: #55a868; stroke: #ffffff; stroke-width: 0.96"/>
    <path d="M 372.93873 90.541089 
C 374.529948 90.541089 376.056209 89.908891 377.18137 88.78373 
C 378.306532 87.658568 378.93873 86.132308 378.93873 84.541089 
C 378.93873 82.949871 378.306532 81.42361 377.18137 80.298448 
C 376.056209 79.173287 374.529948 78.541089 372.93873 78.541089 
C 371.347511 78.541089 369.82125 79.173287 368.696089 80.298448 
C 367.570927 81.42361 366.93873 82.949871 366.93873 84.541089 
C 366.93873 86.132308 367.570927 87.658568 368.696089 88.78373 
C 369.82125 89.908891 371.347511 90.541089 372.93873 90.541089 
z
" clip-path="url(#p35e4467a97)" style="fill: #c44e52; stroke: #ffffff; stroke-width: 0.96"/>
    <path d="M 372.93873 90.541089 
C 374.529948 90.541089 376.056209 89.908891 377.18137 88.78373 
C 378.306532 87.658568 378.93873 86.132308 378.93873 84.541089 
C 378.93873 82.949871 378.306532 81.42361 377.18137 80.298448 
C 376.056209 79.173287 374.529948 78.541089 372.93873 78.541089 
C 371.347511 78.541089 369.82125 79.173287 368.696089 80.298448 
C 367.570927 81.42361 366.93873 82.949871 366.93873 84.541089 
C 366.93873 86.132308 367.570927 87.658568 368.696089 88.78373 
C 369.82125 89.908891 371.347511 90.541089 372.93873 90.541089 
z
" clip-path="url(#p35e4467a97)" style="fill: #c44e52; stroke: #ffffff; stroke-width: 0.96"/>
    <path d="M 326.219878 81.468041 
L 329.219878 78.468041 
L 332.219878 81.468041 
L 335.219878 78.468041 
L 332.219878 75.468041 
L 335.219878 72.468041 
L 332.219878 69.468041 
L 329.219878 72.468041 
L 326.219878 69.468041 
L 323.219878 72.468041 
L 326.219878 75.468041 
L 323.219878 78.468041 
z
" clip-path="url(#p35e4467a97)" style="fill: #c44e52; stroke: #ffffff; stroke-width: 0.96"/>
    <path d="M 326.219878 81.468041 
L 329.219878 78.468041 
L 332.219878 81.468041 
L 335.219878 78.468041 
L 332.219878 75.468041 
L 335.219878 72.468041 
L 332.219878 69.468041 
L 329.219878 72.468041 
L 326.219878 69.468041 
L 323.219878 72.468041 
L 326.219878 75.468041 
L 323.219878 78.468041 
z
" clip-path="url(#p35e4467a97)" style="fill: #c44e52; stroke: #ffffff; stroke-width: 0.96"/>
   </g>
   <g id="PathCollection_2"/>
   <g id="PathCollection_3"/>
   <g id="PathCollection_4"/>
   <g id="PathCollection_5"/>
   <g id="PathCollection_6"/>
   <g id="PathCollection_7"/>
   <g id="patch_3">
    <path d="M 77.9225 273.335375 
L 77.9225 7.223375 
" style="fill: none; stroke: #cccccc; stroke-width: 2.5; stroke-linejoin: miter; stroke-linecap: square"/>
   </g>
   <g id="patch_4">
    <path d="M 435.0425 273.335375 
L 435.0425 7.223375 
" style="fill: none; stroke: #cccccc; stroke-width: 2.5; stroke-linejoin: miter; stroke-linecap: square"/>
   </g>
   <g id="patch_5">
    <path d="M 77.9225 273.335375 
L 435.0425 273.335375 
" style="fill: none; stroke: #cccccc; stroke-width: 2.5; stroke-linejoin: miter; stroke-linecap: square"/>
   </g>
   <g id="patch_6">
    <path d="M 77.9225 7.223375 
L 435.0425 7.223375 
" style="fill: none; stroke: #cccccc; stroke-width: 2.5; stroke-linejoin: miter; stroke-linecap: square"/>
   </g>
   <g id="legend_1">
    <g id="patch_7">
     <path d="M 456.958313 273.35875 
L 741.0505 273.35875 
Q 745.4505 273.35875 745.4505 268.95875 
L 745.4505 11.6 
Q 745.4505 7.2 741.0505 7.2 
L 456.958313 7.2 
Q 452.558313 7.2 452.558313 11.6 
L 452.558313 268.95875 
Q 452.558313 273.35875 456.958313 273.35875 
z
" style="fill: #ffffff; opacity: 0.8; stroke: #cccccc; stroke-width: 2; stroke-linejoin: miter"/>
    </g>
    <g id="text_8">
     <!-- System -->
     <g style="fill: #262626" transform="translate(522.958313 32.716562) scale(0.22 -0.22)">
      <defs>
       <path id="DejaVuSans-53" d="M 3425 4513 
L 3425 3897 
Q 3066 4069 2747 4153 
Q 2428 4238 2131 4238 
Q 1616 4238 1336 4038 
Q 1056 3838 1056 3469 
Q 1056 3159 1242 3001 
Q 1428 2844 1947 2747 
L 2328 2669 
Q 3034 2534 3370 2195 
Q 3706 1856 3706 1288 
Q 3706 609 3251 259 
Q 2797 -91 1919 -91 
Q 1588 -91 1214 -16 
Q 841 59 441 206 
L 441 856 
Q 825 641 1194 531 
Q 1563 422 1919 422 
Q 2459 422 2753 634 
Q 3047 847 3047 1241 
Q 3047 1584 2836 1778 
Q 2625 1972 2144 2069 
L 1759 2144 
Q 1053 2284 737 2584 
Q 422 2884 422 3419 
Q 422 4038 858 4394 
Q 1294 4750 2059 4750 
Q 2388 4750 2728 4690 
Q 3069 4631 3425 4513 
z
" transform="scale(0.015625)"/>
       <path id="DejaVuSans-6d" d="M 3328 2828 
Q 3544 3216 3844 3400 
Q 4144 3584 4550 3584 
Q 5097 3584 5394 3201 
Q 5691 2819 5691 2113 
L 5691 0 
L 5113 0 
L 5113 2094 
Q 5113 2597 4934 2840 
Q 4756 3084 4391 3084 
Q 3944 3084 3684 2787 
Q 3425 2491 3425 1978 
L 3425 0 
L 2847 0 
L 2847 2094 
Q 2847 2600 2669 2842 
Q 2491 3084 2119 3084 
Q 1678 3084 1418 2786 
Q 1159 2488 1159 1978 
L 1159 0 
L 581 0 
L 581 3500 
L 1159 3500 
L 1159 2956 
Q 1356 3278 1631 3431 
Q 1906 3584 2284 3584 
Q 2666 3584 2933 3390 
Q 3200 3197 3328 2828 
z
" transform="scale(0.015625)"/>
      </defs>
      <use xlink:href="#DejaVuSans-53"/>
      <use xlink:href="#DejaVuSans-79" x="63.476562"/>
      <use xlink:href="#DejaVuSans-73" x="122.65625"/>
      <use xlink:href="#DejaVuSans-74" x="174.755859"/>
      <use xlink:href="#DejaVuSans-65" x="213.964844"/>
      <use xlink:href="#DejaVuSans-6d" x="275.488281"/>
     </g>
    </g>
    <g id="PathCollection_8">
     <defs>
      <path id="m455cf33a14" d="M 0 6 
C 1.591219 6 3.117479 5.367802 4.242641 4.242641 
C 5.367802 3.117479 6 1.591219 6 0 
C 6 -1.591219 5.367802 -3.117479 4.242641 -4.242641 
C 3.117479 -5.367802 1.591219 -6 0 -6 
C -1.591219 -6 -3.117479 -5.367802 -4.242641 -4.242641 
C -5.367802 -3.117479 -6 -1.591219 -6 0 
C -6 1.591219 -5.367802 3.117479 -4.242641 4.242641 
C -3.117479 5.367802 -1.591219 6 0 6 
z
" style="stroke: #4c72b0; stroke-width: 2"/>
     </defs>
     <g>
      <use xlink:href="#m455cf33a14" x="483.358313" y="59.233437" style="fill: #4c72b0; stroke: #4c72b0; stroke-width: 2"/>
     </g>
    </g>
    <g id="text_9">
     <!-- ClickHouse -->
     <g style="fill: #262626" transform="translate(522.958313 65.008437) scale(0.22 -0.22)">
      <defs>
       <path id="DejaVuSans-63" d="M 3122 3366 
L 3122 2828 
Q 2878 2963 2633 3030 
Q 2388 3097 2138 3097 
Q 1578 3097 1268 2742 
Q 959 2388 959 1747 
Q 959 1106 1268 751 
Q 1578 397 2138 397 
Q 2388 397 2633 464 
Q 2878 531 3122 666 
L 3122 134 
Q 2881 22 2623 -34 
Q 2366 -91 2075 -91 
Q 1284 -91 818 406 
Q 353 903 353 1747 
Q 353 2603 823 3093 
Q 1294 3584 2113 3584 
Q 2378 3584 2631 3529 
Q 2884 3475 3122 3366 
z
" transform="scale(0.015625)"/>
       <path id="DejaVuSans-48" d="M 628 4666 
L 1259 4666 
L 1259 2753 
L 3553 2753 
L 3553 4666 
L 4184 4666 
L 4184 0 
L 3553 0 
L 3553 2222 
L 1259 2222 
L 1259 0 
L 628 0 
L 628 4666 
z
" transform="scale(0.015625)"/>
      </defs>
      <use xlink:href="#DejaVuSans-43"/>
      <use xlink:href="#DejaVuSans-6c" x="69.824219"/>
      <use xlink:href="#DejaVuSans-69" x="97.607422"/>
      <use xlink:href="#DejaVuSans-63" x="125.390625"/>
      <use xlink:href="#DejaVuSans-6b" x="180.371094"/>
      <use xlink:href="#DejaVuSans-48" x="238.28125"/>
      <use xlink:href="#DejaVuSans-6f" x="313.476562"/>
      <use xlink:href="#DejaVuSans-75" x="374.658203"/>
      <use xlink:href="#DejaVuSans-73" x="438.037109"/>
      <use xlink:href="#DejaVuSans-65" x="490.136719"/>
     </g>
    </g>
    <g id="PathCollection_9">
     <defs>
      <path id="mb3b3806000" d="M 0 6 
C 1.591219 6 3.117479 5.367802 4.242641 4.242641 
C 5.367802 3.117479 6 1.591219 6 0 
C 6 -1.591219 5.367802 -3.117479 4.242641 -4.242641 
C 3.117479 -5.367802 1.591219 -6 0 -6 
C -1.591219 -6 -3.117479 -5.367802 -4.242641 -4.242641 
C -5.367802 -3.117479 -6 -1.591219 -6 0 
C -6 1.591219 -5.367802 3.117479 -4.242641 4.242641 
C -3.117479 5.367802 -1.591219 6 0 6 
z
" style="stroke: #dd8452; stroke-width: 2"/>
     </defs>
     <g>
      <use xlink:href="#mb3b3806000" x="483.358313" y="91.525312" style="fill: #dd8452; stroke: #dd8452; stroke-width: 2"/>
     </g>
    </g>
    <g id="text_10">
     <!-- DataLayerTS -->
     <g style="fill: #262626" transform="translate(522.958313 97.300312) scale(0.22 -0.22)">
      <defs>
       <path id="DejaVuSans-4c" d="M 628 4666 
L 1259 4666 
L 1259 531 
L 3531 531 
L 3531 0 
L 628 0 
L 628 4666 
z
" transform="scale(0.015625)"/>
      </defs>
      <use xlink:href="#DejaVuSans-44"/>
      <use xlink:href="#DejaVuSans-61" x="77.001953"/>
      <use xlink:href="#DejaVuSans-74" x="138.28125"/>
      <use xlink:href="#DejaVuSans-61" x="177.490234"/>
      <use xlink:href="#DejaVuSans-4c" x="238.769531"/>
      <use xlink:href="#DejaVuSans-61" x="294.482422"/>
      <use xlink:href="#DejaVuSans-79" x="355.761719"/>
      <use xlink:href="#DejaVuSans-65" x="414.941406"/>
      <use xlink:href="#DejaVuSans-72" x="476.464844"/>
      <use xlink:href="#DejaVuSans-54" x="517.578125"/>
      <use xlink:href="#DejaVuSans-53" x="578.662109"/>
     </g>
    </g>
    <g id="PathCollection_10">
     <defs>
      <path id="m1c7fbb5b2d" d="M 0 6 
C 1.591219 6 3.117479 5.367802 4.242641 4.242641 
C 5.367802 3.117479 6 1.591219 6 0 
C 6 -1.591219 5.367802 -3.117479 4.242641 -4.242641 
C 3.117479 -5.367802 1.591219 -6 0 -6 
C -1.591219 -6 -3.117479 -5.367802 -4.242641 -4.242641 
C -5.367802 -3.117479 -6 -1.591219 -6 0 
C -6 1.591219 -5.367802 3.117479 -4.242641 4.242641 
C -3.117479 5.367802 -1.591219 6 0 6 
z
" style="stroke: #55a868; stroke-width: 2"/>
     </defs>
     <g>
      <use xlink:href="#m1c7fbb5b2d" x="483.358313" y="123.817187" style="fill: #55a868; stroke: #55a868; stroke-width: 2"/>
     </g>
    </g>
    <g id="text_11">
     <!-- InFlux -->
     <g style="fill: #262626" transform="translate(522.958313 129.592187) scale(0.22 -0.22)">
      <defs>
       <path id="DejaVuSans-49" d="M 628 4666 
L 1259 4666 
L 1259 0 
L 628 0 
L 628 4666 
z
" transform="scale(0.015625)"/>
       <path id="DejaVuSans-6e" d="M 3513 2113 
L 3513 0 
L 2938 0 
L 2938 2094 
Q 2938 2591 2744 2837 
Q 2550 3084 2163 3084 
Q 1697 3084 1428 2787 
Q 1159 2491 1159 1978 
L 1159 0 
L 581 0 
L 581 3500 
L 1159 3500 
L 1159 2956 
Q 1366 3272 1645 3428 
Q 1925 3584 2291 3584 
Q 2894 3584 3203 3211 
Q 3513 2838 3513 2113 
z
" transform="scale(0.015625)"/>
       <path id="DejaVuSans-46" d="M 628 4666 
L 3309 4666 
L 3309 4134 
L 1259 4134 
L 1259 2759 
L 3109 2759 
L 3109 2228 
L 1259 2228 
L 1259 0 
L 628 0 
L 628 4666 
z
" transform="scale(0.015625)"/>
       <path id="DejaVuSans-78" d="M 3513 3500 
L 2247 1797 
L 3578 0 
L 2900 0 
L 1881 1375 
L 863 0 
L 184 0 
L 1544 1831 
L 300 3500 
L 978 3500 
L 1906 2253 
L 2834 3500 
L 3513 3500 
z
" transform="scale(0.015625)"/>
      </defs>
      <use xlink:href="#DejaVuSans-49"/>
      <use xlink:href="#DejaVuSans-6e" x="29.492188"/>
      <use xlink:href="#DejaVuSans-46" x="92.871094"/>
      <use xlink:href="#DejaVuSans-6c" x="150.390625"/>
      <use xlink:href="#DejaVuSans-75" x="178.173828"/>
      <use xlink:href="#DejaVuSans-78" x="241.552734"/>
     </g>
    </g>
    <g id="PathCollection_11">
     <defs>
      <path id="m2773d8fe8d" d="M 0 6 
C 1.591219 6 3.117479 5.367802 4.242641 4.242641 
C 5.367802 3.117479 6 1.591219 6 0 
C 6 -1.591219 5.367802 -3.117479 4.242641 -4.242641 
C 3.117479 -5.367802 1.591219 -6 0 -6 
C -1.591219 -6 -3.117479 -5.367802 -4.242641 -4.242641 
C -5.367802 -3.117479 -6 -1.591219 -6 0 
C -6 1.591219 -5.367802 3.117479 -4.242641 4.242641 
C -3.117479 5.367802 -1.591219 6 0 6 
z
" style="stroke: #c44e52; stroke-width: 2"/>
     </defs>
     <g>
      <use xlink:href="#m2773d8fe8d" x="483.358313" y="156.109062" style="fill: #c44e52; stroke: #c44e52; stroke-width: 2"/>
     </g>
    </g>
    <g id="text_12">
     <!-- TimeScale -->
     <g style="fill: #262626" transform="translate(522.958313 161.884062) scale(0.22 -0.22)">
      <use xlink:href="#DejaVuSans-54"/>
      <use xlink:href="#DejaVuSans-69" x="57.958984"/>
      <use xlink:href="#DejaVuSans-6d" x="85.742188"/>
      <use xlink:href="#DejaVuSans-65" x="183.154297"/>
      <use xlink:href="#DejaVuSans-53" x="244.677734"/>
      <use xlink:href="#DejaVuSans-63" x="308.154297"/>
      <use xlink:href="#DejaVuSans-61" x="363.134766"/>
      <use xlink:href="#DejaVuSans-6c" x="424.414062"/>
      <use xlink:href="#DejaVuSans-65" x="452.197266"/>
     </g>
    </g>
    <g id="text_13">
     <!-- Mode -->
     <g style="fill: #262626" transform="translate(522.958313 194.175937) scale(0.22 -0.22)">
      <defs>
       <path id="DejaVuSans-4d" d="M 628 4666 
L 1569 4666 
L 2759 1491 
L 3956 4666 
L 4897 4666 
L 4897 0 
L 4281 0 
L 4281 4097 
L 3078 897 
L 2444 897 
L 1241 4097 
L 1241 0 
L 628 0 
L 628 4666 
z
" transform="scale(0.015625)"/>
       <path id="DejaVuSans-64" d="M 2906 2969 
L 2906 4863 
L 3481 4863 
L 3481 0 
L 2906 0 
L 2906 525 
Q 2725 213 2448 61 
Q 2172 -91 1784 -91 
Q 1150 -91 751 415 
Q 353 922 353 1747 
Q 353 2572 751 3078 
Q 1150 3584 1784 3584 
Q 2172 3584 2448 3432 
Q 2725 3281 2906 2969 
z
M 947 1747 
Q 947 1113 1208 752 
Q 1469 391 1925 391 
Q 2381 391 2643 752 
Q 2906 1113 2906 1747 
Q 2906 2381 2643 2742 
Q 2381 3103 1925 3103 
Q 1469 3103 1208 2742 
Q 947 2381 947 1747 
z
" transform="scale(0.015625)"/>
      </defs>
      <use xlink:href="#DejaVuSans-4d"/>
      <use xlink:href="#DejaVuSans-6f" x="86.279297"/>
      <use xlink:href="#DejaVuSans-64" x="147.460938"/>
      <use xlink:href="#DejaVuSans-65" x="210.9375"/>
     </g>
    </g>
    <g id="PathCollection_12">
     <defs>
      <path id="me9e7183285" d="M 0 6 
C 1.591219 6 3.117479 5.367802 4.242641 4.242641 
C 5.367802 3.117479 6 1.591219 6 0 
C 6 -1.591219 5.367802 -3.117479 4.242641 -4.242641 
C 3.117479 -5.367802 1.591219 -6 0 -6 
C -1.591219 -6 -3.117479 -5.367802 -4.242641 -4.242641 
C -5.367802 -3.117479 -6 -1.591219 -6 0 
C -6 1.591219 -5.367802 3.117479 -4.242641 4.242641 
C -3.117479 5.367802 -1.591219 6 0 6 
z
" style="stroke: #333333; stroke-width: 2"/>
     </defs>
     <g>
      <use xlink:href="#me9e7183285" x="483.358313" y="220.692812" style="fill: #333333; stroke: #333333; stroke-width: 2"/>
     </g>
    </g>
    <g id="text_14">
     <!-- dedicated_irregular -->
     <g style="fill: #262626" transform="translate(522.958313 226.467812) scale(0.22 -0.22)">
      <defs>
       <path id="DejaVuSans-5f" d="M 3263 -1063 
L 3263 -1509 
L -63 -1509 
L -63 -1063 
L 3263 -1063 
z
" transform="scale(0.015625)"/>
       <path id="DejaVuSans-67" d="M 2906 1791 
Q 2906 2416 2648 2759 
Q 2391 3103 1925 3103 
Q 1463 3103 1205 2759 
Q 947 2416 947 1791 
Q 947 1169 1205 825 
Q 1463 481 1925 481 
Q 2391 481 2648 825 
Q 2906 1169 2906 1791 
z
M 3481 434 
Q 3481 -459 3084 -895 
Q 2688 -1331 1869 -1331 
Q 1566 -1331 1297 -1286 
Q 1028 -1241 775 -1147 
L 775 -588 
Q 1028 -725 1275 -790 
Q 1522 -856 1778 -856 
Q 2344 -856 2625 -561 
Q 2906 -266 2906 331 
L 2906 616 
Q 2728 306 2450 153 
Q 2172 0 1784 0 
Q 1141 0 747 490 
Q 353 981 353 1791 
Q 353 2603 747 3093 
Q 1141 3584 1784 3584 
Q 2172 3584 2450 3431 
Q 2728 3278 2906 2969 
L 2906 3500 
L 3481 3500 
L 3481 434 
z
" transform="scale(0.015625)"/>
      </defs>
      <use xlink:href="#DejaVuSans-64"/>
      <use xlink:href="#DejaVuSans-65" x="63.476562"/>
      <use xlink:href="#DejaVuSans-64" x="125"/>
      <use xlink:href="#DejaVuSans-69" x="188.476562"/>
      <use xlink:href="#DejaVuSans-63" x="216.259766"/>
      <use xlink:href="#DejaVuSans-61" x="271.240234"/>
      <use xlink:href="#DejaVuSans-74" x="332.519531"/>
      <use xlink:href="#DejaVuSans-65" x="371.728516"/>
      <use xlink:href="#DejaVuSans-64" x="433.251953"/>
      <use xlink:href="#DejaVuSans-5f" x="496.728516"/>
      <use xlink:href="#DejaVuSans-69" x="546.728516"/>
      <use xlink:href="#DejaVuSans-72" x="574.511719"/>
      <use xlink:href="#DejaVuSans-72" x="613.875"/>
      <use xlink:href="#DejaVuSans-65" x="652.738281"/>
      <use xlink:href="#DejaVuSans-67" x="714.261719"/>
      <use xlink:href="#DejaVuSans-75" x="777.738281"/>
      <use xlink:href="#DejaVuSans-6c" x="841.117188"/>
      <use xlink:href="#DejaVuSans-61" x="868.900391"/>
      <use xlink:href="#DejaVuSans-72" x="930.179688"/>
     </g>
    </g>
    <g id="PathCollection_13">
     <defs>
      <path id="m9b0ddc770b" d="M -3 6 
L 0 3 
L 3 6 
L 6 3 
L 3 0 
L 6 -3 
L 3 -6 
L 0 -3 
L -3 -6 
L -6 -3 
L -3 0 
L -6 3 
z
" style="stroke: #333333; stroke-width: 2"/>
     </defs>
     <g>
      <use xlink:href="#m9b0ddc770b" x="483.358313" y="253.596562" style="fill: #333333; stroke: #333333; stroke-width: 2"/>
     </g>
    </g>
    <g id="text_15">
     <!-- dedicated_regular -->
     <g style="fill: #262626" transform="translate(522.958313 259.371562) scale(0.22 -0.22)">
      <use xlink:href="#DejaVuSans-64"/>
      <use xlink:href="#DejaVuSans-65" x="63.476562"/>
      <use xlink:href="#DejaVuSans-64" x="125"/>
      <use xlink:href="#DejaVuSans-69" x="188.476562"/>
      <use xlink:href="#DejaVuSans-63" x="216.259766"/>
      <use xlink:href="#DejaVuSans-61" x="271.240234"/>
      <use xlink:href="#DejaVuSans-74" x="332.519531"/>
      <use xlink:href="#DejaVuSans-65" x="371.728516"/>
      <use xlink:href="#DejaVuSans-64" x="433.251953"/>
      <use xlink:href="#DejaVuSans-5f" x="496.728516"/>
      <use xlink:href="#DejaVuSans-72" x="546.728516"/>
      <use xlink:href="#DejaVuSans-65" x="585.591797"/>
      <use xlink:href="#DejaVuSans-67" x="647.115234"/>
      <use xlink:href="#DejaVuSans-75" x="710.591797"/>
      <use xlink:href="#DejaVuSans-6c" x="773.970703"/>
      <use xlink:href="#DejaVuSans-61" x="801.753906"/>
      <use xlink:href="#DejaVuSans-72" x="863.033203"/>
     </g>
    </g>
   </g>
  </g>
 </g>
 <defs>
  <clipPath id="p35e4467a97">
   <rect x="77.9225" y="7.223375" width="357.12" height="266.112"/>
  </clipPath>
 </defs>
</svg>
