<?xml version="1.0" encoding="utf-8" standalone="no"?>
<!DOCTYPE svg PUBLIC "-//W3C//DTD SVG 1.1//EN"
  "http://www.w3.org/Graphics/SVG/1.1/DTD/svg11.dtd">
<svg xmlns:xlink="http://www.w3.org/1999/xlink" width="766.648pt" height="344.7985pt" viewBox="0 0 766.648 344.7985" xmlns="http://www.w3.org/2000/svg" version="1.1">
 <metadata>
  <rdf:RDF xmlns:dc="http://purl.org/dc/elements/1.1/" xmlns:cc="http://creativecommons.org/ns#" xmlns:rdf="http://www.w3.org/1999/02/22-rdf-syntax-ns#">
   <cc:Work>
    <dc:type rdf:resource="http://purl.org/dc/dcmitype/StillImage"/>
    <dc:date>2025-01-22T17:02:14.543350</dc:date>
    <dc:format>image/svg+xml</dc:format>
    <dc:creator>
     <cc:Agent>
      <dc:title>Matplotlib v3.7.1, https://matplotlib.org/</dc:title>
     </cc:Agent>
    </dc:creator>
   </cc:Work>
  </rdf:RDF>
 </metadata>
 <defs>
  <style type="text/css">*{stroke-linejoin: round; stroke-linecap: butt}</style>
 </defs>
 <g id="figure_1">
  <g id="patch_1">
   <path d="M 0 344.7985 
L 766.648 344.7985 
L 766.648 0 
L 0 0 
z
" style="fill: #ffffff"/>
  </g>
  <g id="axes_1">
   <g id="patch_2">
    <path d="M 91.92 273.335375 
L 449.04 273.335375 
L 449.04 7.223375 
L 91.92 7.223375 
z
" style="fill: #ffffff"/>
   </g>
   <g id="matplotlib.axis_1">
    <g id="xtick_1">
     <g id="line2d_1">
      <path d="M 177.613432 273.335375 
L 177.613432 7.223375 
" clip-path="url(#p6371cc5b04)" style="fill: none; stroke: #cccccc; stroke-width: 2; stroke-linecap: round"/>
     </g>
     <g id="text_1">
      <!-- $\mathdefault{10^{-2}}$ -->
      <g style="fill: #262626" transform="translate(151.763432 305.551937) scale(0.22 -0.22)">
       <defs>
        <path id="DejaVuSans-31" d="M 794 531 
L 1825 531 
L 1825 4091 
L 703 3866 
L 703 4441 
L 1819 4666 
L 2450 4666 
L 2450 531 
L 3481 531 
L 3481 0 
L 794 0 
L 794 531 
z
" transform="scale(0.015625)"/>
        <path id="DejaVuSans-30" d="M 2034 4250 
Q 1547 4250 1301 3770 
Q 1056 3291 1056 2328 
Q 1056 1369 1301 889 
Q 1547 409 2034 409 
Q 2525 409 2770 889 
Q 3016 1369 3016 2328 
Q 3016 3291 2770 3770 
Q 2525 4250 2034 4250 
z
M 2034 4750 
Q 2819 4750 3233 4129 
Q 3647 3509 3647 2328 
Q 3647 1150 3233 529 
Q 2819 -91 2034 -91 
Q 1250 -91 836 529 
Q 422 1150 422 2328 
Q 422 3509 836 4129 
Q 1250 4750 2034 4750 
z
" transform="scale(0.015625)"/>
        <path id="DejaVuSans-2212" d="M 678 2272 
L 4684 2272 
L 4684 1741 
L 678 1741 
L 678 2272 
z
" transform="scale(0.015625)"/>
        <path id="DejaVuSans-32" d="M 1228 531 
L 3431 531 
L 3431 0 
L 469 0 
L 469 531 
Q 828 903 1448 1529 
Q 2069 2156 2228 2338 
Q 2531 2678 2651 2914 
Q 2772 3150 2772 3378 
Q 2772 3750 2511 3984 
Q 2250 4219 1831 4219 
Q 1534 4219 1204 4116 
Q 875 4013 500 3803 
L 500 4441 
Q 881 4594 1212 4672 
Q 1544 4750 1819 4750 
Q 2544 4750 2975 4387 
Q 3406 4025 3406 3419 
Q 3406 3131 3298 2873 
Q 3191 2616 2906 2266 
Q 2828 2175 2409 1742 
Q 1991 1309 1228 531 
z
" transform="scale(0.015625)"/>
       </defs>
       <use xlink:href="#DejaVuSans-31" transform="translate(0 0.765625)"/>
       <use xlink:href="#DejaVuSans-30" transform="translate(63.623047 0.765625)"/>
       <use xlink:href="#DejaVuSans-2212" transform="translate(128.203125 39.046875) scale(0.7)"/>
       <use xlink:href="#DejaVuSans-32" transform="translate(186.855469 39.046875) scale(0.7)"/>
      </g>
     </g>
    </g>
    <g id="xtick_2">
     <g id="line2d_2">
      <path d="M 292.918446 273.335375 
L 292.918446 7.223375 
" clip-path="url(#p6371cc5b04)" style="fill: none; stroke: #cccccc; stroke-width: 2; stroke-linecap: round"/>
     </g>
     <g id="text_2">
      <!-- $\mathdefault{10^{0}}$ -->
      <g style="fill: #262626" transform="translate(273.558446 305.551937) scale(0.22 -0.22)">
       <use xlink:href="#DejaVuSans-31" transform="translate(0 0.765625)"/>
       <use xlink:href="#DejaVuSans-30" transform="translate(63.623047 0.765625)"/>
       <use xlink:href="#DejaVuSans-30" transform="translate(128.203125 39.046875) scale(0.7)"/>
      </g>
     </g>
    </g>
    <g id="xtick_3">
     <g id="line2d_3">
      <path d="M 408.22346 273.335375 
L 408.22346 7.223375 
" clip-path="url(#p6371cc5b04)" style="fill: none; stroke: #cccccc; stroke-width: 2; stroke-linecap: round"/>
     </g>
     <g id="text_3">
      <!-- $\mathdefault{10^{2}}$ -->
      <g style="fill: #262626" transform="translate(388.86346 305.551937) scale(0.22 -0.22)">
       <use xlink:href="#DejaVuSans-31" transform="translate(0 0.765625)"/>
       <use xlink:href="#DejaVuSans-30" transform="translate(63.623047 0.765625)"/>
       <use xlink:href="#DejaVuSans-32" transform="translate(128.203125 39.046875) scale(0.7)"/>
      </g>
     </g>
    </g>
    <g id="text_4">
     <!-- MB_per_Sec -->
     <g style="fill: #262626" transform="translate(198.358125 331.93975) scale(0.24 -0.24)">
      <defs>
       <path id="DejaVuSans-4d" d="M 628 4666 
L 1569 4666 
L 2759 1491 
L 3956 4666 
L 4897 4666 
L 4897 0 
L 4281 0 
L 4281 4097 
L 3078 897 
L 2444 897 
L 1241 4097 
L 1241 0 
L 628 0 
L 628 4666 
z
" transform="scale(0.015625)"/>
       <path id="DejaVuSans-42" d="M 1259 2228 
L 1259 519 
L 2272 519 
Q 2781 519 3026 730 
Q 3272 941 3272 1375 
Q 3272 1813 3026 2020 
Q 2781 2228 2272 2228 
L 1259 2228 
z
M 1259 4147 
L 1259 2741 
L 2194 2741 
Q 2656 2741 2882 2914 
Q 3109 3088 3109 3444 
Q 3109 3797 2882 3972 
Q 2656 4147 2194 4147 
L 1259 4147 
z
M 628 4666 
L 2241 4666 
Q 2963 4666 3353 4366 
Q 3744 4066 3744 3513 
Q 3744 3084 3544 2831 
Q 3344 2578 2956 2516 
Q 3422 2416 3680 2098 
Q 3938 1781 3938 1306 
Q 3938 681 3513 340 
Q 3088 0 2303 0 
L 628 0 
L 628 4666 
z
" transform="scale(0.015625)"/>
       <path id="DejaVuSans-5f" d="M 3263 -1063 
L 3263 -1509 
L -63 -1509 
L -63 -1063 
L 3263 -1063 
z
" transform="scale(0.015625)"/>
       <path id="DejaVuSans-70" d="M 1159 525 
L 1159 -1331 
L 581 -1331 
L 581 3500 
L 1159 3500 
L 1159 2969 
Q 1341 3281 1617 3432 
Q 1894 3584 2278 3584 
Q 2916 3584 3314 3078 
Q 3713 2572 3713 1747 
Q 3713 922 3314 415 
Q 2916 -91 2278 -91 
Q 1894 -91 1617 61 
Q 1341 213 1159 525 
z
M 3116 1747 
Q 3116 2381 2855 2742 
Q 2594 3103 2138 3103 
Q 1681 3103 1420 2742 
Q 1159 2381 1159 1747 
Q 1159 1113 1420 752 
Q 1681 391 2138 391 
Q 2594 391 2855 752 
Q 3116 1113 3116 1747 
z
" transform="scale(0.015625)"/>
       <path id="DejaVuSans-65" d="M 3597 1894 
L 3597 1613 
L 953 1613 
Q 991 1019 1311 708 
Q 1631 397 2203 397 
Q 2534 397 2845 478 
Q 3156 559 3463 722 
L 3463 178 
Q 3153 47 2828 -22 
Q 2503 -91 2169 -91 
Q 1331 -91 842 396 
Q 353 884 353 1716 
Q 353 2575 817 3079 
Q 1281 3584 2069 3584 
Q 2775 3584 3186 3129 
Q 3597 2675 3597 1894 
z
M 3022 2063 
Q 3016 2534 2758 2815 
Q 2500 3097 2075 3097 
Q 1594 3097 1305 2825 
Q 1016 2553 972 2059 
L 3022 2063 
z
" transform="scale(0.015625)"/>
       <path id="DejaVuSans-72" d="M 2631 2963 
Q 2534 3019 2420 3045 
Q 2306 3072 2169 3072 
Q 1681 3072 1420 2755 
Q 1159 2438 1159 1844 
L 1159 0 
L 581 0 
L 581 3500 
L 1159 3500 
L 1159 2956 
Q 1341 3275 1631 3429 
Q 1922 3584 2338 3584 
Q 2397 3584 2469 3576 
Q 2541 3569 2628 3553 
L 2631 2963 
z
" transform="scale(0.015625)"/>
       <path id="DejaVuSans-53" d="M 3425 4513 
L 3425 3897 
Q 3066 4069 2747 4153 
Q 2428 4238 2131 4238 
Q 1616 4238 1336 4038 
Q 1056 3838 1056 3469 
Q 1056 3159 1242 3001 
Q 1428 2844 1947 2747 
L 2328 2669 
Q 3034 2534 3370 2195 
Q 3706 1856 3706 1288 
Q 3706 609 3251 259 
Q 2797 -91 1919 -91 
Q 1588 -91 1214 -16 
Q 841 59 441 206 
L 441 856 
Q 825 641 1194 531 
Q 1563 422 1919 422 
Q 2459 422 2753 634 
Q 3047 847 3047 1241 
Q 3047 1584 2836 1778 
Q 2625 1972 2144 2069 
L 1759 2144 
Q 1053 2284 737 2584 
Q 422 2884 422 3419 
Q 422 4038 858 4394 
Q 1294 4750 2059 4750 
Q 2388 4750 2728 4690 
Q 3069 4631 3425 4513 
z
" transform="scale(0.015625)"/>
       <path id="DejaVuSans-63" d="M 3122 3366 
L 3122 2828 
Q 2878 2963 2633 3030 
Q 2388 3097 2138 3097 
Q 1578 3097 1268 2742 
Q 959 2388 959 1747 
Q 959 1106 1268 751 
Q 1578 397 2138 397 
Q 2388 397 2633 464 
Q 2878 531 3122 666 
L 3122 134 
Q 2881 22 2623 -34 
Q 2366 -91 2075 -91 
Q 1284 -91 818 406 
Q 353 903 353 1747 
Q 353 2603 823 3093 
Q 1294 3584 2113 3584 
Q 2378 3584 2631 3529 
Q 2884 3475 3122 3366 
z
" transform="scale(0.015625)"/>
      </defs>
      <use xlink:href="#DejaVuSans-4d"/>
      <use xlink:href="#DejaVuSans-42" x="86.279297"/>
      <use xlink:href="#DejaVuSans-5f" x="154.882812"/>
      <use xlink:href="#DejaVuSans-70" x="204.882812"/>
      <use xlink:href="#DejaVuSans-65" x="268.359375"/>
      <use xlink:href="#DejaVuSans-72" x="329.882812"/>
      <use xlink:href="#DejaVuSans-5f" x="370.996094"/>
      <use xlink:href="#DejaVuSans-53" x="420.996094"/>
      <use xlink:href="#DejaVuSans-65" x="484.472656"/>
      <use xlink:href="#DejaVuSans-63" x="545.996094"/>
     </g>
    </g>
   </g>
   <g id="matplotlib.axis_2">
    <g id="ytick_1">
     <g id="line2d_4">
      <path d="M 91.92 267.221764 
L 449.04 267.221764 
" clip-path="url(#p6371cc5b04)" style="fill: none; stroke: #cccccc; stroke-width: 2; stroke-linecap: round"/>
     </g>
     <g id="text_5">
      <!-- 0 -->
      <g style="fill: #262626" transform="translate(62.4225 275.580045) scale(0.22 -0.22)">
       <use xlink:href="#DejaVuSans-30"/>
      </g>
     </g>
    </g>
    <g id="ytick_2">
     <g id="line2d_5">
      <path d="M 91.92 217.515838 
L 449.04 217.515838 
" clip-path="url(#p6371cc5b04)" style="fill: none; stroke: #cccccc; stroke-width: 2; stroke-linecap: round"/>
     </g>
     <g id="text_6">
      <!-- 20 -->
      <g style="fill: #262626" transform="translate(48.425 225.874119) scale(0.22 -0.22)">
       <use xlink:href="#DejaVuSans-32"/>
       <use xlink:href="#DejaVuSans-30" x="63.623047"/>
      </g>
     </g>
    </g>
    <g id="ytick_3">
     <g id="line2d_6">
      <path d="M 91.92 167.809912 
L 449.04 167.809912 
" clip-path="url(#p6371cc5b04)" style="fill: none; stroke: #cccccc; stroke-width: 2; stroke-linecap: round"/>
     </g>
     <g id="text_7">
      <!-- 40 -->
      <g style="fill: #262626" transform="translate(48.425 176.168193) scale(0.22 -0.22)">
       <defs>
        <path id="DejaVuSans-34" d="M 2419 4116 
L 825 1625 
L 2419 1625 
L 2419 4116 
z
M 2253 4666 
L 3047 4666 
L 3047 1625 
L 3713 1625 
L 3713 1100 
L 3047 1100 
L 3047 0 
L 2419 0 
L 2419 1100 
L 313 1100 
L 313 1709 
L 2253 4666 
z
" transform="scale(0.015625)"/>
       </defs>
       <use xlink:href="#DejaVuSans-34"/>
       <use xlink:href="#DejaVuSans-30" x="63.623047"/>
      </g>
     </g>
    </g>
    <g id="ytick_4">
     <g id="line2d_7">
      <path d="M 91.92 118.103986 
L 449.04 118.103986 
" clip-path="url(#p6371cc5b04)" style="fill: none; stroke: #cccccc; stroke-width: 2; stroke-linecap: round"/>
     </g>
     <g id="text_8">
      <!-- 60 -->
      <g style="fill: #262626" transform="translate(48.425 126.462267) scale(0.22 -0.22)">
       <defs>
        <path id="DejaVuSans-36" d="M 2113 2584 
Q 1688 2584 1439 2293 
Q 1191 2003 1191 1497 
Q 1191 994 1439 701 
Q 1688 409 2113 409 
Q 2538 409 2786 701 
Q 3034 994 3034 1497 
Q 3034 2003 2786 2293 
Q 2538 2584 2113 2584 
z
M 3366 4563 
L 3366 3988 
Q 3128 4100 2886 4159 
Q 2644 4219 2406 4219 
Q 1781 4219 1451 3797 
Q 1122 3375 1075 2522 
Q 1259 2794 1537 2939 
Q 1816 3084 2150 3084 
Q 2853 3084 3261 2657 
Q 3669 2231 3669 1497 
Q 3669 778 3244 343 
Q 2819 -91 2113 -91 
Q 1303 -91 875 529 
Q 447 1150 447 2328 
Q 447 3434 972 4092 
Q 1497 4750 2381 4750 
Q 2619 4750 2861 4703 
Q 3103 4656 3366 4563 
z
" transform="scale(0.015625)"/>
       </defs>
       <use xlink:href="#DejaVuSans-36"/>
       <use xlink:href="#DejaVuSans-30" x="63.623047"/>
      </g>
     </g>
    </g>
    <g id="ytick_5">
     <g id="line2d_8">
      <path d="M 91.92 68.39806 
L 449.04 68.39806 
" clip-path="url(#p6371cc5b04)" style="fill: none; stroke: #cccccc; stroke-width: 2; stroke-linecap: round"/>
     </g>
     <g id="text_9">
      <!-- 80 -->
      <g style="fill: #262626" transform="translate(48.425 76.756341) scale(0.22 -0.22)">
       <defs>
        <path id="DejaVuSans-38" d="M 2034 2216 
Q 1584 2216 1326 1975 
Q 1069 1734 1069 1313 
Q 1069 891 1326 650 
Q 1584 409 2034 409 
Q 2484 409 2743 651 
Q 3003 894 3003 1313 
Q 3003 1734 2745 1975 
Q 2488 2216 2034 2216 
z
M 1403 2484 
Q 997 2584 770 2862 
Q 544 3141 544 3541 
Q 544 4100 942 4425 
Q 1341 4750 2034 4750 
Q 2731 4750 3128 4425 
Q 3525 4100 3525 3541 
Q 3525 3141 3298 2862 
Q 3072 2584 2669 2484 
Q 3125 2378 3379 2068 
Q 3634 1759 3634 1313 
Q 3634 634 3220 271 
Q 2806 -91 2034 -91 
Q 1263 -91 848 271 
Q 434 634 434 1313 
Q 434 1759 690 2068 
Q 947 2378 1403 2484 
z
M 1172 3481 
Q 1172 3119 1398 2916 
Q 1625 2713 2034 2713 
Q 2441 2713 2670 2916 
Q 2900 3119 2900 3481 
Q 2900 3844 2670 4047 
Q 2441 4250 2034 4250 
Q 1625 4250 1398 4047 
Q 1172 3844 1172 3481 
z
" transform="scale(0.015625)"/>
       </defs>
       <use xlink:href="#DejaVuSans-38"/>
       <use xlink:href="#DejaVuSans-30" x="63.623047"/>
      </g>
     </g>
    </g>
    <g id="ytick_6">
     <g id="line2d_9">
      <path d="M 91.92 18.692134 
L 449.04 18.692134 
" clip-path="url(#p6371cc5b04)" style="fill: none; stroke: #cccccc; stroke-width: 2; stroke-linecap: round"/>
     </g>
     <g id="text_10">
      <!-- 100 -->
      <g style="fill: #262626" transform="translate(34.4275 27.050415) scale(0.22 -0.22)">
       <use xlink:href="#DejaVuSans-31"/>
       <use xlink:href="#DejaVuSans-30" x="63.623047"/>
       <use xlink:href="#DejaVuSans-30" x="127.246094"/>
      </g>
     </g>
    </g>
    <g id="text_11">
     <!-- CpuTotal -->
     <g style="fill: #262626" transform="translate(25.43625 191.905625) rotate(-90) scale(0.24 -0.24)">
      <defs>
       <path id="DejaVuSans-43" d="M 4122 4306 
L 4122 3641 
Q 3803 3938 3442 4084 
Q 3081 4231 2675 4231 
Q 1875 4231 1450 3742 
Q 1025 3253 1025 2328 
Q 1025 1406 1450 917 
Q 1875 428 2675 428 
Q 3081 428 3442 575 
Q 3803 722 4122 1019 
L 4122 359 
Q 3791 134 3420 21 
Q 3050 -91 2638 -91 
Q 1578 -91 968 557 
Q 359 1206 359 2328 
Q 359 3453 968 4101 
Q 1578 4750 2638 4750 
Q 3056 4750 3426 4639 
Q 3797 4528 4122 4306 
z
" transform="scale(0.015625)"/>
       <path id="DejaVuSans-75" d="M 544 1381 
L 544 3500 
L 1119 3500 
L 1119 1403 
Q 1119 906 1312 657 
Q 1506 409 1894 409 
Q 2359 409 2629 706 
Q 2900 1003 2900 1516 
L 2900 3500 
L 3475 3500 
L 3475 0 
L 2900 0 
L 2900 538 
Q 2691 219 2414 64 
Q 2138 -91 1772 -91 
Q 1169 -91 856 284 
Q 544 659 544 1381 
z
M 1991 3584 
L 1991 3584 
z
" transform="scale(0.015625)"/>
       <path id="DejaVuSans-54" d="M -19 4666 
L 3928 4666 
L 3928 4134 
L 2272 4134 
L 2272 0 
L 1638 0 
L 1638 4134 
L -19 4134 
L -19 4666 
z
" transform="scale(0.015625)"/>
       <path id="DejaVuSans-6f" d="M 1959 3097 
Q 1497 3097 1228 2736 
Q 959 2375 959 1747 
Q 959 1119 1226 758 
Q 1494 397 1959 397 
Q 2419 397 2687 759 
Q 2956 1122 2956 1747 
Q 2956 2369 2687 2733 
Q 2419 3097 1959 3097 
z
M 1959 3584 
Q 2709 3584 3137 3096 
Q 3566 2609 3566 1747 
Q 3566 888 3137 398 
Q 2709 -91 1959 -91 
Q 1206 -91 779 398 
Q 353 888 353 1747 
Q 353 2609 779 3096 
Q 1206 3584 1959 3584 
z
" transform="scale(0.015625)"/>
       <path id="DejaVuSans-74" d="M 1172 4494 
L 1172 3500 
L 2356 3500 
L 2356 3053 
L 1172 3053 
L 1172 1153 
Q 1172 725 1289 603 
Q 1406 481 1766 481 
L 2356 481 
L 2356 0 
L 1766 0 
Q 1100 0 847 248 
Q 594 497 594 1153 
L 594 3053 
L 172 3053 
L 172 3500 
L 594 3500 
L 594 4494 
L 1172 4494 
z
" transform="scale(0.015625)"/>
       <path id="DejaVuSans-61" d="M 2194 1759 
Q 1497 1759 1228 1600 
Q 959 1441 959 1056 
Q 959 750 1161 570 
Q 1363 391 1709 391 
Q 2188 391 2477 730 
Q 2766 1069 2766 1631 
L 2766 1759 
L 2194 1759 
z
M 3341 1997 
L 3341 0 
L 2766 0 
L 2766 531 
Q 2569 213 2275 61 
Q 1981 -91 1556 -91 
Q 1019 -91 701 211 
Q 384 513 384 1019 
Q 384 1609 779 1909 
Q 1175 2209 1959 2209 
L 2766 2209 
L 2766 2266 
Q 2766 2663 2505 2880 
Q 2244 3097 1772 3097 
Q 1472 3097 1187 3025 
Q 903 2953 641 2809 
L 641 3341 
Q 956 3463 1253 3523 
Q 1550 3584 1831 3584 
Q 2591 3584 2966 3190 
Q 3341 2797 3341 1997 
z
" transform="scale(0.015625)"/>
       <path id="DejaVuSans-6c" d="M 603 4863 
L 1178 4863 
L 1178 0 
L 603 0 
L 603 4863 
z
" transform="scale(0.015625)"/>
      </defs>
      <use xlink:href="#DejaVuSans-43"/>
      <use xlink:href="#DejaVuSans-70" x="69.824219"/>
      <use xlink:href="#DejaVuSans-75" x="133.300781"/>
      <use xlink:href="#DejaVuSans-54" x="196.679688"/>
      <use xlink:href="#DejaVuSans-6f" x="240.763672"/>
      <use xlink:href="#DejaVuSans-74" x="301.945312"/>
      <use xlink:href="#DejaVuSans-61" x="341.154297"/>
      <use xlink:href="#DejaVuSans-6c" x="402.433594"/>
     </g>
    </g>
   </g>
   <g id="PolyCollection_1"/>
   <g id="PolyCollection_2"/>
   <g id="PolyCollection_3"/>
   <g id="PolyCollection_4"/>
   <g id="PolyCollection_5"/>
   <g id="PolyCollection_6"/>
   <g id="PolyCollection_7"/>
   <g id="line2d_10">
    <path d="M 213.562344 255.680048 
L 215.453873 255.680048 
L 249.658876 256.726167 
L 254.187572 255.430414 
L 266.697638 246.096745 
L 272.455144 256.98471 
L 273.606975 256.241273 
L 285.258812 256.185207 
L 289.95512 237.031331 
L 293.844739 237.031331 
L 295.594629 252.807045 
L 299.109759 225.632106 
L 301.084786 246.292953 
L 305.588528 252.807045 
L 307.511289 248.27138 
L 307.632773 255.851533 
L 311.238537 259.517345 
L 313.299304 224.91208 
L 323.109296 255.753897 
L 324.457004 246.400504 
L 324.839824 227.734792 
L 325.310222 227.734792 
L 325.695877 247.419998 
L 325.721828 242.160357 
L 327.493728 256.553399 
L 328.344845 247.419998 
L 332.658595 218.172666 
L 340.244136 247.322825 
L 341.04942 257.280579 
L 341.930765 247.919296 
L 342.352524 246.388125 
L 342.77548 224.971727 
L 343.241081 256.080781 
L 346.099923 221.343194 
L 352.289918 223.69701 
L 353.38531 258.771757 
L 355.353319 244.822029 
L 356.621777 228.519702 
L 356.635464 257.160322 
L 356.636896 226.777709 
L 358.379403 244.161765 
L 359.547623 246.422405 
L 359.821084 255.248484 
L 360.348421 218.851685 
L 360.877538 226.458762 
L 361.350174 236.884357 
L 361.795026 238.13708 
L 362.367532 226.458762 
L 363.183893 238.13708 
L 363.894453 233.639198 
L 363.942302 207.869206 
L 364.954201 227.789216 
L 365.030455 257.396559 
L 365.147994 227.005151 
L 365.801813 227.821533 
L 366.417369 230.664609 
L 367.030498 236.884357 
L 368.154689 257.835628 
L 368.284283 223.107755 
L 369.490367 237.655308 
L 370.036032 254.158027 
L 370.681618 217.898191 
L 370.956844 254.158027 
L 374.156472 257.505057 
L 374.470761 217.878557 
L 375.101676 217.878557 
L 375.113585 246.281138 
L 375.278832 247.355428 
L 377.381552 246.829589 
L 377.56598 225.10555 
L 378.447652 235.667071 
L 379.048414 257.560175 
L 381.333842 226.172953 
L 382.821815 228.202612 
L 383.266767 246.829589 
L 383.971252 245.152333 
L 384.063944 246.797147 
L 384.362639 247.510258 
L 384.92233 195.24137 
L 385.584775 238.916477 
L 385.608425 198.995778 
L 385.694826 206.257446 
L 386.153556 248.573472 
L 386.68934 206.257446 
L 387.174428 224.618975 
L 387.215939 218.082796 
L 388.043442 246.060669 
L 388.86471 241.510286 
L 389.453258 232.4532 
L 390.246317 246.038755 
L 390.329418 244.873007 
L 390.358956 246.284677 
L 390.443336 230.827085 
L 390.892244 192.31814 
L 390.934129 208.841352 
L 391.984375 246.284677 
L 392.324775 208.199985 
L 392.36949 223.59653 
L 392.398351 187.799978 
L 392.597189 243.851962 
L 393.027268 230.865429 
L 393.170168 245.398951 
L 393.27079 236.953867 
L 393.405209 248.646178 
L 393.423372 245.398951 
L 393.423793 239.106475 
L 393.527482 239.601519 
L 393.830201 243.56485 
L 393.898763 215.154806 
L 394.520383 242.994211 
L 394.618633 234.451824 
L 394.796743 238.622275 
L 394.933333 207.18529 
L 394.946035 247.766554 
L 394.983611 242.84653 
L 396.182857 244.689769 
L 396.245756 232.746044 
L 397.132998 238.215835 
L 398.758578 227.216511 
L 398.803396 241.392995 
L 398.883764 235.306417 
L 399.258239 233.044931 
L 399.407183 209.749287 
L 404.683005 238.215835 
L 404.683005 238.215835 
" clip-path="url(#p6371cc5b04)" style="fill: none; stroke: #4c72b0; stroke-width: 3; stroke-linecap: round"/>
   </g>
   <g id="line2d_11">
    <path d="M 213.690991 237.43963 
L 214.150431 237.43963 
L 249.43927 238.65639 
L 255.644972 254.811579 
L 265.530387 243.377258 
L 272.339507 245.853739 
L 272.890956 257.01364 
L 288.407068 252.936959 
L 290.995994 247.18334 
L 293.700799 247.18334 
L 298.425357 230.190849 
L 299.107721 230.190849 
L 299.734668 248.709068 
L 300.708984 236.823484 
L 304.927291 248.709068 
L 306.377939 255.770283 
L 308.003316 248.937084 
L 310.614025 241.214913 
L 313.017873 227.715112 
L 322.352499 256.458519 
L 323.524577 241.418175 
L 324.281357 227.861347 
L 325.297641 241.519658 
L 325.448885 252.487987 
L 325.846637 227.861347 
L 326.840056 252.487987 
L 327.565819 254.11873 
L 331.679933 230.315114 
L 340.037143 247.159088 
L 340.245681 256.203617 
L 341.729733 255.391754 
L 341.770642 246.069131 
L 342.091611 231.963381 
L 342.93388 223.274869 
L 348.446818 212.393366 
L 349.631365 236.321247 
L 350.885947 245.799484 
L 351.658427 243.417285 
L 352.488828 257.906505 
L 355.118035 247.33551 
L 355.246272 221.752491 
L 355.384601 255.89785 
L 356.185944 237.329648 
L 356.336936 256.187048 
L 357.982059 240.500049 
L 358.825396 223.054498 
L 358.984411 244.45645 
L 360.310328 238.147133 
L 360.525824 236.188261 
L 361.764175 233.482187 
L 362.284082 236.188261 
L 362.993652 235.097305 
L 363.345369 229.051364 
L 363.465566 254.403072 
L 363.81995 233.946144 
L 364.574121 223.75524 
L 364.589132 228.09341 
L 364.788138 232.657459 
L 364.816272 238.147133 
L 365.427687 229.735749 
L 366.215025 257.268152 
L 368.936433 229.051364 
L 369.696578 226.109228 
L 369.921168 255.467774 
L 370.144744 255.467774 
L 370.441617 233.56126 
L 373.65509 246.979582 
L 373.695699 240.289267 
L 374.053504 255.769985 
L 374.900104 246.832956 
L 375.168155 246.979582 
L 375.893438 253.352996 
L 378.017628 221.400115 
L 378.034907 204.501923 
L 379.158468 205.911108 
L 379.377551 243.529741 
L 380.250223 243.529741 
L 382.017062 228.875356 
L 382.118858 244.767112 
L 382.512947 243.236743 
L 383.076791 223.951787 
L 383.19093 241.674632 
L 384.02792 224.406887 
L 384.219008 225.634472 
L 384.780088 245.949068 
L 385.451438 210.331675 
L 385.561788 217.097677 
L 386.7335 210.331675 
L 387.033017 242.547432 
L 387.341427 234.665945 
L 387.93655 231.557762 
L 388.50229 238.057143 
L 388.647315 199.323469 
L 389.120974 245.003215 
L 389.590971 218.8587 
L 389.874994 245.960831 
L 390.413183 241.194136 
L 390.42471 209.761713 
L 390.493572 238.163214 
L 390.532867 238.016204 
L 390.55322 245.522021 
L 390.683951 244.013411 
L 390.848937 199.877881 
L 391.005676 231.639515 
L 391.327749 226.141728 
L 391.497007 232.80041 
L 391.734947 218.171052 
L 391.945671 241.775361 
L 392.314206 234.700931 
L 392.432543 244.013411 
L 392.505006 241.543555 
L 392.995344 241.903424 
L 393.121221 243.501272 
L 393.319403 244.287596 
L 394.006216 247.969742 
L 394.042475 244.556553 
L 394.251546 238.472621 
L 394.662883 242.297474 
L 394.802238 234.402046 
L 395.17347 228.4932 
L 395.300487 241.081066 
L 395.512358 244.287596 
L 395.777377 243.088294 
L 395.927663 244.556615 
L 396.293189 241.543555 
L 396.298276 237.599772 
L 396.348677 239.885611 
L 397.360884 237.763472 
L 400.114414 240.662679 
L 402.825682 239.403785 
L 402.825682 239.403785 
" clip-path="url(#p6371cc5b04)" style="fill: none; stroke-dasharray: 12,4.5; stroke-dashoffset: 0; stroke: #4c72b0; stroke-width: 3"/>
   </g>
   <g id="line2d_12">
    <path d="M 108.152727 179.423204 
L 140.86445 123.553991 
L 141.344827 131.519408 
L 141.455963 117.241487 
L 145.97481 175.421658 
L 176.045497 168.131009 
L 176.725864 132.042796 
L 177.588753 112.79835 
L 177.776069 113.886438 
L 188.694353 171.83844 
L 194.767548 112.54407 
L 195.092156 126.701167 
L 196.546204 136.266937 
L 217.462613 141.032289 
L 217.86796 141.585626 
L 217.980723 115.711888 
L 218.088425 113.69215 
L 218.682364 165.38641 
L 227.261354 107.219643 
L 230.931823 112.190297 
L 231.555049 119.004319 
L 232.49072 138.54687 
L 236.888945 104.010243 
L 238.273897 163.057556 
L 245.247164 141.911995 
L 245.569631 124.323898 
L 245.682641 111.759122 
L 246.937988 91.59871 
L 261.943347 119.009916 
L 262.81471 139.503422 
L 262.940939 126.60337 
L 262.94869 113.509458 
L 263.069523 125.177757 
L 263.170679 113.79662 
L 266.183003 48.412801 
L 267.780542 159.848437 
L 271.251464 107.928261 
L 272.000292 120.28973 
L 273.096879 137.68605 
L 274.8442 141.676645 
L 275.857187 100.821259 
L 278.915914 105.9571 
L 283.084652 92.185308 
L 283.376191 148.548865 
L 284.051764 68.108108 
L 286.348209 100.856029 
L 290.401142 113.979538 
L 290.421569 124.878372 
L 290.738535 55.248583 
L 290.741216 68.325079 
L 291.995905 119.863508 
L 292.055183 61.974525 
L 299.023108 113.424109 
L 299.653841 117.497377 
L 301.130677 131.19145 
L 301.265475 189.804784 
L 303.659017 35.486727 
L 303.802841 113.343687 
L 309.952306 116.392122 
L 312.181538 133.521107 
L 314.96086 148.129472 
L 316.38665 115.890052 
L 317.058602 118.015108 
L 318.203717 133.404091 
L 320.022119 79.359073 
L 320.208398 102.54921 
L 324.027526 88.639958 
L 324.538601 96.078047 
L 325.943036 52.959984 
L 326.859832 65.479979 
L 327.580949 47.954493 
L 331.734569 113.828459 
L 338.131004 114.386563 
L 343.834332 114.058612 
L 344.664655 119.366954 
L 344.868621 194.278317 
L 345.42327 134.424098 
L 349.776898 111.905098 
L 351.395787 33.742244 
L 352.371907 95.654524 
L 352.402511 85.793024 
L 353.445309 120.216488 
L 357.905818 141.98854 
L 360.468965 71.644478 
L 365.813572 74.013276 
L 367.623879 62.677666 
L 369.23525 46.775982 
L 370.377194 50.410728 
L 370.464151 72.987917 
L 373.84291 86.537068 
L 373.857707 187.459286 
L 378.411885 89.516932 
L 379.312547 27.937436 
L 382.471497 116.084682 
L 383.976411 135.724737 
L 386.346641 61.757659 
L 391.797457 174.594771 
L 394.579543 63.202237 
L 394.811469 28.985436 
L 395.297506 56.556724 
L 395.819943 38.319602 
L 397.714199 44.88565 
L 397.989722 139.704062 
L 398.610948 53.464582 
L 399.030264 127.705514 
L 400.682951 52.227599 
L 401.395577 101.017574 
L 404.662854 70.790157 
L 410.016702 35.292376 
L 410.062112 51.988649 
L 410.965848 39.062526 
L 411.066241 52.978417 
L 416.368918 163.808585 
L 420.520091 38.085462 
L 421.910151 50.413402 
L 422.668766 62.387886 
L 422.710948 109.871442 
L 427.916936 84.432229 
L 430.789845 45.242199 
L 432.807273 48.435518 
" clip-path="url(#p6371cc5b04)" style="fill: none; stroke-dasharray: 12,4.5; stroke-dashoffset: 0; stroke: #dd8452; stroke-width: 3"/>
   </g>
   <g id="line2d_13">
    <path d="M 242.756763 250.508146 
L 257.495153 250.508146 
L 287.964615 225.684178 
L 295.41693 166.085737 
L 296.06798 181.870954 
L 296.095855 201.741516 
L 303.973014 33.69711 
L 305.672909 70.217938 
L 307.119042 177.936049 
L 307.183975 198.38596 
L 308.029565 169.135403 
L 308.874551 198.38596 
L 309.138505 175.976872 
L 309.288568 59.181753 
L 311.300615 182.882031 
L 315.324698 70.217938 
L 316.779968 175.976872 
L 318.12009 186.295374 
L 320.845987 59.181753 
L 320.892737 183.667706 
L 322.034331 168.454536 
L 325.440954 192.378841 
L 328.590669 48.716116 
L 329.307542 177.208851 
L 330.50632 179.777569 
L 331.988295 188.30231 
L 332.069445 181.603306 
L 333.580561 184.873024 
L 333.663303 44.138179 
L 334.963953 193.596744 
L 335.032718 174.048863 
L 335.425964 188.814674 
L 335.619167 179.880391 
L 335.632885 181.612125 
L 335.773283 181.612125 
L 335.833926 124.505507 
L 337.194348 122.23372 
L 337.264191 159.367436 
L 338.253595 53.397521 
L 338.588004 133.477319 
L 339.120644 190.78115 
L 341.793641 93.129595 
L 342.063374 66.467813 
L 342.690358 104.162935 
L 343.445663 118.794457 
L 343.771886 81.288216 
L 343.854108 85.520165 
L 344.334756 72.011815 
L 346.003188 65.860832 
L 346.530995 93.129595 
L 347.316328 81.284008 
L 350.384082 93.147787 
L 350.604267 85.520165 
L 351.242437 82.422232 
L 351.330144 83.515517 
L 351.964655 77.345126 
L 355.07907 63.860093 
L 356.012022 63.860093 
L 356.238764 104.134906 
L 358.465283 37.812881 
L 360.163621 91.086744 
L 360.561798 95.197057 
L 361.055225 142.69185 
L 361.249243 109.863675 
L 362.087858 44.420868 
L 362.599624 52.425889 
L 363.851382 80.646795 
L 363.971628 66.153276 
L 364.238829 120.05339 
L 364.327489 66.169183 
L 364.60757 76.692736 
L 364.629087 82.512472 
L 364.638583 77.904318 
L 365.008796 57.306702 
L 365.294967 60.908199 
L 365.315719 78.595968 
L 366.744185 39.660186 
L 367.293094 108.992995 
L 367.423594 63.730291 
L 367.794151 25.236747 
L 368.632503 96.311044 
L 369.01791 52.514092 
L 369.400666 42.078833 
L 369.551783 113.577692 
L 369.792142 65.649826 
L 370.215954 44.08965 
L 370.34777 63.261486 
L 370.405286 58.282298 
L 370.491316 52.310312 
L 370.762404 58.938871 
L 371.36921 39.660186 
L 371.558475 19.319375 
L 371.648409 49.10467 
L 371.823154 52.243634 
L 372.040348 78.698232 
L 372.202505 44.138361 
L 372.496844 69.096277 
L 373.098184 42.078833 
L 373.248599 76.758596 
L 373.345775 52.264035 
L 373.948422 74.007728 
L 374.029133 52.243634 
L 374.212107 65.816103 
L 375.155556 90.731836 
L 375.488643 78.779915 
L 375.677022 59.310797 
L 375.807526 64.67932 
L 376.760227 49.867069 
L 376.947049 72.720631 
L 376.948242 67.083408 
L 378.713087 45.798112 
L 379.881512 74.211382 
L 380.101698 87.851152 
L 380.256952 53.162615 
L 381.055519 49.765926 
L 382.257983 53.740948 
L 382.752424 102.973502 
L 382.93097 39.320093 
L 383.089318 63.178937 
L 383.669569 102.973502 
L 383.821305 63.127778 
L 383.821305 63.127778 
" clip-path="url(#p6371cc5b04)" style="fill: none; stroke: #55a868; stroke-width: 3; stroke-linecap: round"/>
   </g>
   <g id="line2d_14">
    <path d="M 200.867167 157.087633 
L 234.579247 132.075381 
L 241.679597 157.087633 
L 275.602011 132.563312 
L 293.58025 36.454692 
L 298.561026 157.552416 
L 301.41134 210.442819 
L 305.501219 194.899642 
L 307.815115 194.682839 
L 308.018627 157.552416 
L 310.46467 145.740481 
L 311.000489 187.880359 
L 311.29967 194.682839 
L 314.064808 86.147217 
L 314.551354 219.518694 
L 315.816113 209.384458 
L 316.04733 40.212959 
L 317.531562 86.147217 
L 318.116021 219.518694 
L 319.005157 36.454692 
L 319.670178 187.849248 
L 324.162845 214.056044 
L 329.53437 211.662965 
L 331.91399 194.899642 
L 331.937854 189.156592 
L 332.201186 203.144612 
L 332.451179 197.536817 
L 334.945634 201.282929 
L 335.34089 205.429934 
L 335.943759 202.066699 
L 336.536972 209.498982 
L 337.144927 211.65502 
L 337.146207 187.781043 
L 337.193687 208.590196 
L 337.360991 211.65502 
L 337.586431 206.690992 
L 337.634439 145.630785 
L 338.390912 138.478813 
L 339.050367 206.690992 
L 339.545743 38.292837 
L 340.920564 196.005598 
L 342.510412 134.40479 
L 342.801053 132.549463 
L 343.129265 53.604629 
L 343.557586 134.277031 
L 344.904184 103.369729 
L 345.22014 118.911707 
L 345.294705 132.549463 
L 345.749629 134.40479 
L 346.021737 114.845486 
L 346.788814 145.171122 
L 346.808317 72.672769 
L 347.896401 81.386789 
L 348.195722 64.481575 
L 348.920014 110.939232 
L 352.866354 100.161359 
L 353.945782 114.845486 
L 355.146962 86.886239 
L 356.225336 76.393858 
L 357.119694 49.449818 
L 358.043487 86.132759 
L 359.744936 86.132759 
L 360.533583 154.420378 
L 361.55677 158.970901 
L 362.783163 108.56559 
L 363.584114 107.82551 
L 363.912685 134.886276 
L 363.950816 117.970935 
L 365.671297 91.080531 
L 367.276785 76.393858 
L 367.374583 87.327733 
L 367.37945 84.552486 
L 368.115966 101.23873 
L 368.179574 99.185213 
L 368.420317 111.340156 
L 368.638896 83.294926 
L 368.908472 74.392167 
L 369.889212 112.229346 
L 370.379796 86.694286 
L 370.772173 96.303418 
L 371.665684 109.694026 
L 371.668942 89.342287 
L 371.846721 40.960388 
L 371.896776 106.804458 
L 373.901405 33.585502 
L 374.014821 143.788238 
L 374.038059 99.480832 
L 374.120397 84.301099 
L 374.44442 71.713609 
L 374.9458 105.985417 
L 375.058433 42.670958 
L 375.209162 65.267874 
L 375.636682 70.540618 
L 375.934307 40.032544 
L 375.96242 72.992092 
L 376.115642 45.364689 
L 376.124947 64.481575 
L 376.227263 37.743705 
L 376.347243 103.843527 
L 376.41724 29.550307 
L 376.447909 68.986756 
L 376.544324 87.305908 
L 376.698839 91.199143 
L 376.861242 115.223071 
L 377.187212 57.503733 
L 377.240593 58.246001 
L 377.329319 111.658079 
L 377.334878 58.652276 
L 377.671695 65.267874 
L 378.245273 86.058369 
L 378.650421 44.299562 
L 378.709198 83.896879 
L 378.86816 74.516518 
L 378.871967 95.768542 
L 378.902999 68.986756 
L 379.223144 70.622189 
L 379.699048 37.743705 
L 379.876918 78.823398 
L 380.335739 49.312698 
L 380.899129 54.431669 
L 381.075893 74.516518 
L 382.06508 79.865465 
L 382.385984 116.313775 
L 382.88965 52.682557 
L 384.175436 78.005283 
L 384.368296 46.059508 
L 384.485684 71.477798 
L 384.736248 52.832256 
L 386.288846 110.755569 
L 386.324761 98.859508 
L 387.173927 79.865465 
L 387.691828 59.365639 
L 388.869526 61.832735 
L 388.869526 61.832735 
" clip-path="url(#p6371cc5b04)" style="fill: none; stroke-dasharray: 12,4.5; stroke-dashoffset: 0; stroke: #55a868; stroke-width: 3"/>
   </g>
   <g id="line2d_15">
    <path d="M 218.424542 228.635271 
L 220.957537 228.635271 
L 246.714502 221.488738 
L 251.439702 178.927471 
L 253.655632 178.927471 
L 263.027502 246.352314 
L 275.329252 199.022633 
L 278.054779 221.409562 
L 286.646312 200.053361 
L 288.042237 203.31786 
L 290.197591 203.049538 
L 291.425636 246.189369 
L 291.956495 192.309497 
L 294.171602 204.991856 
L 295.344805 191.159862 
L 296.262453 204.991856 
L 296.496425 244.824942 
L 297.971828 244.824942 
L 297.99025 136.329492 
L 301.626824 213.583341 
L 305.109212 208.634708 
L 306.24196 73.286305 
L 306.319105 171.800976 
L 308.240759 73.210038 
L 308.732062 119.052917 
L 309.436926 87.610612 
L 310.900454 70.531219 
L 311.868802 203.31786 
L 312.193461 81.798865 
L 313.205123 192.309497 
L 313.455071 89.601561 
L 314.353321 209.750555 
L 314.752178 91.077175 
L 315.364751 106.329674 
L 316.656427 218.162015 
L 316.959435 232.313297 
L 317.365618 111.634568 
L 318.049662 174.555006 
L 318.925335 119.052917 
L 319.474148 104.46745 
L 319.709713 147.904095 
L 319.848961 113.787134 
L 319.851176 207.893521 
L 322.75809 258.097176 
L 322.872668 99.431562 
L 326.537428 113.787134 
L 327.303969 87.610612 
L 327.60416 106.329674 
L 331.967657 209.997817 
L 333.684665 205.450854 
L 335.553038 212.030111 
L 336.883251 195.254684 
L 337.848188 197.550624 
L 338.424069 209.90013 
L 340.041665 208.907386 
L 342.148806 200.193323 
L 345.970132 199.636498 
L 346.938801 89.601188 
L 347.906554 87.00954 
L 348.870186 215.071118 
L 349.865263 75.642907 
L 350.20468 248.517917 
L 350.354795 73.146767 
L 351.483222 74.467368 
L 351.981852 210.911163 
L 352.2111 214.184357 
L 353.976311 214.184357 
L 354.604677 82.731862 
L 356.085048 76.843465 
L 356.234071 185.541695 
L 356.470773 198.489514 
L 356.902224 84.725327 
L 359.79058 94.32906 
L 360.654716 82.755267 
L 360.743437 91.194226 
L 361.107666 75.564902 
L 361.38524 104.171264 
L 362.043761 115.213678 
L 362.298306 74.027898 
L 363.552508 76.524979 
L 363.992366 105.910776 
L 364.389652 84.540059 
L 364.577031 93.042435 
L 364.712608 75.099155 
L 365.778583 219.487866 
L 366.313113 219.527744 
L 366.356911 83.272405 
L 366.60802 89.382605 
L 366.779908 172.961712 
L 367.624197 85.319875 
L 368.175237 82.199738 
L 368.707293 217.168834 
L 368.786202 73.440595 
L 369.384855 87.219001 
L 370.66685 79.767237 
L 370.818136 95.825953 
L 371.53641 227.147212 
L 372.038948 98.516927 
L 372.683249 92.216602 
L 372.987306 213.334355 
L 373.667756 108.74862 
L 374.693043 217.17263 
L 375.523923 97.319345 
L 375.702317 92.240607 
L 381.092939 90.872239 
L 381.560772 101.835887 
L 381.915092 219.487866 
L 382.771644 81.691751 
L 383.899703 89.79403 
L 383.992914 84.1262 
L 384.085894 177.682262 
L 385.284532 89.537861 
L 385.373562 93.790514 
L 386.42532 114.729385 
L 387.794815 82.51022 
L 387.905695 99.920628 
L 388.056397 227.147212 
L 389.101117 81.703271 
L 390.332077 100.858645 
L 390.543881 93.589537 
L 392.098821 104.49929 
L 392.483231 96.494131 
L 392.623947 83.869029 
L 392.79253 93.692163 
L 393.039955 119.750495 
L 395.817103 94.7422 
L 398.182472 91.092226 
L 398.212567 83.869029 
L 398.262622 109.652946 
L 399.936178 89.79403 
L 401.526881 109.652946 
L 402.299025 99.920628 
L 402.299025 99.920628 
" clip-path="url(#p6371cc5b04)" style="fill: none; stroke: #c44e52; stroke-width: 3; stroke-linecap: round"/>
   </g>
   <g id="line2d_16">
    <path d="M 219.317676 208.993573 
L 221.519794 208.993573 
L 244.500338 224.782371 
L 246.772281 246.746607 
L 259.938435 239.256279 
L 268.332473 224.782371 
L 274.58191 239.533014 
L 277.061429 251.686977 
L 278.397171 196.752568 
L 279.768868 225.057427 
L 283.809786 226.495729 
L 284.963211 226.048689 
L 290.382401 219.646092 
L 290.952156 196.752568 
L 291.878596 243.877056 
L 292.232558 221.992021 
L 293.217447 187.807726 
L 293.729315 221.992021 
L 295.499325 187.807726 
L 296.156949 137.507706 
L 296.458288 126.666961 
L 297.550575 226.495729 
L 298.329663 85.947458 
L 303.005395 171.747576 
L 303.952418 253.377221 
L 307.580704 82.480779 
L 308.564868 71.111444 
L 308.72609 76.241655 
L 308.953321 66.883582 
L 309.013105 82.859494 
L 309.067127 149.829333 
L 311.074021 107.100739 
L 311.18625 126.666961 
L 311.294591 104.52642 
L 311.924022 107.100739 
L 312.330536 95.487789 
L 312.433749 127.583616 
L 312.550715 82.480779 
L 312.760905 154.518979 
L 312.797381 86.685967 
L 313.493783 100.988142 
L 313.680119 70.418236 
L 313.691727 218.245894 
L 315.574375 235.673277 
L 319.898286 95.332274 
L 320.355816 261.239375 
L 321.640277 95.332274 
L 324.316356 226.4274 
L 325.549576 231.163356 
L 326.933475 219.891781 
L 327.584228 219.85494 
L 332.535473 220.525808 
L 335.040921 166.604083 
L 336.022462 231.015516 
L 336.430069 207.283751 
L 337.326406 250.697753 
L 338.224212 68.261769 
L 340.320826 166.604083 
L 340.897679 104.970151 
L 342.19918 233.510495 
L 344.033233 237.264385 
L 345.071 229.196731 
L 345.213049 84.527633 
L 346.840183 231.579691 
L 347.393929 83.216771 
L 347.672371 79.84359 
L 348.004372 174.651814 
L 349.345911 244.596489 
L 350.447265 80.759585 
L 351.860469 196.30479 
L 352.126262 229.225969 
L 352.165271 96.481908 
L 352.297058 71.529715 
L 352.528559 93.054815 
L 352.970653 72.762762 
L 353.202562 103.919387 
L 354.371479 68.100204 
L 354.960973 186.325369 
L 355.82121 219.427729 
L 356.705405 90.597279 
L 356.829688 128.391337 
L 357.141507 75.33045 
L 357.774327 79.013825 
L 357.859083 197.051682 
L 359.099581 224.118442 
L 359.30086 94.801848 
L 360.617089 208.105168 
L 361.414518 96.730438 
L 362.017677 96.978967 
L 362.640661 93.898118 
L 362.661563 87.090104 
L 362.916518 83.88974 
L 363.323556 95.62408 
L 363.752512 82.744501 
L 365.206617 179.806323 
L 365.908016 197.051682 
L 366.465959 73.505848 
L 368.715459 74.760973 
L 369.769512 93.251023 
L 370.112684 208.105168 
L 370.43929 70.307993 
L 371.448188 189.654737 
L 372.653014 82.905977 
L 372.982565 117.589174 
L 372.987689 189.654737 
L 373.271084 189.550337 
L 373.623547 71.711788 
L 373.624871 124.680462 
L 374.156164 92.796813 
L 375.213261 82.905977 
L 377.601289 97.476026 
L 378.461383 93.208056 
L 378.560521 94.820684 
L 380.508151 92.493874 
L 381.965858 88.673168 
L 382.034203 176.163515 
L 382.170475 74.633141 
L 382.33668 95.94978 
L 382.590727 85.694456 
L 382.752472 137.874946 
L 384.138564 75.055949 
L 385.454754 170.255967 
L 386.900111 75.205996 
L 387.254875 95.94978 
L 387.476367 85.694456 
L 388.920564 102.084898 
L 389.67874 169.918129 
L 389.695248 106.39469 
L 390.282777 182.860866 
L 394.796672 92.75849 
L 399.199137 92.75849 
L 399.199137 92.75849 
" clip-path="url(#p6371cc5b04)" style="fill: none; stroke-dasharray: 12,4.5; stroke-dashoffset: 0; stroke: #c44e52; stroke-width: 3"/>
   </g>
   <g id="line2d_17"/>
   <g id="line2d_18"/>
   <g id="line2d_19"/>
   <g id="line2d_20"/>
   <g id="line2d_21"/>
   <g id="line2d_22"/>
   <g id="patch_3">
    <path d="M 91.92 273.335375 
L 91.92 7.223375 
" style="fill: none; stroke: #cccccc; stroke-width: 2.5; stroke-linejoin: miter; stroke-linecap: square"/>
   </g>
   <g id="patch_4">
    <path d="M 449.04 273.335375 
L 449.04 7.223375 
" style="fill: none; stroke: #cccccc; stroke-width: 2.5; stroke-linejoin: miter; stroke-linecap: square"/>
   </g>
   <g id="patch_5">
    <path d="M 91.92 273.335375 
L 449.04 273.335375 
" style="fill: none; stroke: #cccccc; stroke-width: 2.5; stroke-linejoin: miter; stroke-linecap: square"/>
   </g>
   <g id="patch_6">
    <path d="M 91.92 7.223375 
L 449.04 7.223375 
" style="fill: none; stroke: #cccccc; stroke-width: 2.5; stroke-linejoin: miter; stroke-linecap: square"/>
   </g>
   <g id="legend_1">
    <g id="patch_7">
     <path d="M 470.955812 273.35875 
L 755.048 273.35875 
Q 759.448 273.35875 759.448 268.95875 
L 759.448 11.6 
Q 759.448 7.2 755.048 7.2 
L 470.955812 7.2 
Q 466.555813 7.2 466.555813 11.6 
L 466.555813 268.95875 
Q 466.555813 273.35875 470.955812 273.35875 
z
" style="fill: #ffffff; opacity: 0.8; stroke: #cccccc; stroke-width: 2; stroke-linejoin: miter"/>
    </g>
    <g id="text_12">
     <!-- System -->
     <g style="fill: #262626" transform="translate(536.955812 32.716562) scale(0.22 -0.22)">
      <defs>
       <path id="DejaVuSans-79" d="M 2059 -325 
Q 1816 -950 1584 -1140 
Q 1353 -1331 966 -1331 
L 506 -1331 
L 506 -850 
L 844 -850 
Q 1081 -850 1212 -737 
Q 1344 -625 1503 -206 
L 1606 56 
L 191 3500 
L 800 3500 
L 1894 763 
L 2988 3500 
L 3597 3500 
L 2059 -325 
z
" transform="scale(0.015625)"/>
       <path id="DejaVuSans-73" d="M 2834 3397 
L 2834 2853 
Q 2591 2978 2328 3040 
Q 2066 3103 1784 3103 
Q 1356 3103 1142 2972 
Q 928 2841 928 2578 
Q 928 2378 1081 2264 
Q 1234 2150 1697 2047 
L 1894 2003 
Q 2506 1872 2764 1633 
Q 3022 1394 3022 966 
Q 3022 478 2636 193 
Q 2250 -91 1575 -91 
Q 1294 -91 989 -36 
Q 684 19 347 128 
L 347 722 
Q 666 556 975 473 
Q 1284 391 1588 391 
Q 1994 391 2212 530 
Q 2431 669 2431 922 
Q 2431 1156 2273 1281 
Q 2116 1406 1581 1522 
L 1381 1569 
Q 847 1681 609 1914 
Q 372 2147 372 2553 
Q 372 3047 722 3315 
Q 1072 3584 1716 3584 
Q 2034 3584 2315 3537 
Q 2597 3491 2834 3397 
z
" transform="scale(0.015625)"/>
       <path id="DejaVuSans-6d" d="M 3328 2828 
Q 3544 3216 3844 3400 
Q 4144 3584 4550 3584 
Q 5097 3584 5394 3201 
Q 5691 2819 5691 2113 
L 5691 0 
L 5113 0 
L 5113 2094 
Q 5113 2597 4934 2840 
Q 4756 3084 4391 3084 
Q 3944 3084 3684 2787 
Q 3425 2491 3425 1978 
L 3425 0 
L 2847 0 
L 2847 2094 
Q 2847 2600 2669 2842 
Q 2491 3084 2119 3084 
Q 1678 3084 1418 2786 
Q 1159 2488 1159 1978 
L 1159 0 
L 581 0 
L 581 3500 
L 1159 3500 
L 1159 2956 
Q 1356 3278 1631 3431 
Q 1906 3584 2284 3584 
Q 2666 3584 2933 3390 
Q 3200 3197 3328 2828 
z
" transform="scale(0.015625)"/>
      </defs>
      <use xlink:href="#DejaVuSans-53"/>
      <use xlink:href="#DejaVuSans-79" x="63.476562"/>
      <use xlink:href="#DejaVuSans-73" x="122.65625"/>
      <use xlink:href="#DejaVuSans-74" x="174.755859"/>
      <use xlink:href="#DejaVuSans-65" x="213.964844"/>
      <use xlink:href="#DejaVuSans-6d" x="275.488281"/>
     </g>
    </g>
    <g id="line2d_23">
     <path d="M 475.355813 57.308437 
L 497.355813 57.308437 
L 519.355812 57.308437 
" style="fill: none; stroke: #4c72b0; stroke-width: 3; stroke-linecap: round"/>
    </g>
    <g id="text_13">
     <!-- ClickHouse -->
     <g style="fill: #262626" transform="translate(536.955812 65.008437) scale(0.22 -0.22)">
      <defs>
       <path id="DejaVuSans-69" d="M 603 3500 
L 1178 3500 
L 1178 0 
L 603 0 
L 603 3500 
z
M 603 4863 
L 1178 4863 
L 1178 4134 
L 603 4134 
L 603 4863 
z
" transform="scale(0.015625)"/>
       <path id="DejaVuSans-6b" d="M 581 4863 
L 1159 4863 
L 1159 1991 
L 2875 3500 
L 3609 3500 
L 1753 1863 
L 3688 0 
L 2938 0 
L 1159 1709 
L 1159 0 
L 581 0 
L 581 4863 
z
" transform="scale(0.015625)"/>
       <path id="DejaVuSans-48" d="M 628 4666 
L 1259 4666 
L 1259 2753 
L 3553 2753 
L 3553 4666 
L 4184 4666 
L 4184 0 
L 3553 0 
L 3553 2222 
L 1259 2222 
L 1259 0 
L 628 0 
L 628 4666 
z
" transform="scale(0.015625)"/>
      </defs>
      <use xlink:href="#DejaVuSans-43"/>
      <use xlink:href="#DejaVuSans-6c" x="69.824219"/>
      <use xlink:href="#DejaVuSans-69" x="97.607422"/>
      <use xlink:href="#DejaVuSans-63" x="125.390625"/>
      <use xlink:href="#DejaVuSans-6b" x="180.371094"/>
      <use xlink:href="#DejaVuSans-48" x="238.28125"/>
      <use xlink:href="#DejaVuSans-6f" x="313.476562"/>
      <use xlink:href="#DejaVuSans-75" x="374.658203"/>
      <use xlink:href="#DejaVuSans-73" x="438.037109"/>
      <use xlink:href="#DejaVuSans-65" x="490.136719"/>
     </g>
    </g>
    <g id="line2d_24">
     <path d="M 475.355813 89.600312 
L 497.355813 89.600312 
L 519.355812 89.600312 
" style="fill: none; stroke: #dd8452; stroke-width: 3; stroke-linecap: round"/>
    </g>
    <g id="text_14">
     <!-- DataLayerTS -->
     <g style="fill: #262626" transform="translate(536.955812 97.300312) scale(0.22 -0.22)">
      <defs>
       <path id="DejaVuSans-44" d="M 1259 4147 
L 1259 519 
L 2022 519 
Q 2988 519 3436 956 
Q 3884 1394 3884 2338 
Q 3884 3275 3436 3711 
Q 2988 4147 2022 4147 
L 1259 4147 
z
M 628 4666 
L 1925 4666 
Q 3281 4666 3915 4102 
Q 4550 3538 4550 2338 
Q 4550 1131 3912 565 
Q 3275 0 1925 0 
L 628 0 
L 628 4666 
z
" transform="scale(0.015625)"/>
       <path id="DejaVuSans-4c" d="M 628 4666 
L 1259 4666 
L 1259 531 
L 3531 531 
L 3531 0 
L 628 0 
L 628 4666 
z
" transform="scale(0.015625)"/>
      </defs>
      <use xlink:href="#DejaVuSans-44"/>
      <use xlink:href="#DejaVuSans-61" x="77.001953"/>
      <use xlink:href="#DejaVuSans-74" x="138.28125"/>
      <use xlink:href="#DejaVuSans-61" x="177.490234"/>
      <use xlink:href="#DejaVuSans-4c" x="238.769531"/>
      <use xlink:href="#DejaVuSans-61" x="294.482422"/>
      <use xlink:href="#DejaVuSans-79" x="355.761719"/>
      <use xlink:href="#DejaVuSans-65" x="414.941406"/>
      <use xlink:href="#DejaVuSans-72" x="476.464844"/>
      <use xlink:href="#DejaVuSans-54" x="517.578125"/>
      <use xlink:href="#DejaVuSans-53" x="578.662109"/>
     </g>
    </g>
    <g id="line2d_25">
     <path d="M 475.355813 121.892187 
L 497.355813 121.892187 
L 519.355812 121.892187 
" style="fill: none; stroke: #55a868; stroke-width: 3; stroke-linecap: round"/>
    </g>
    <g id="text_15">
     <!-- InFlux -->
     <g style="fill: #262626" transform="translate(536.955812 129.592187) scale(0.22 -0.22)">
      <defs>
       <path id="DejaVuSans-49" d="M 628 4666 
L 1259 4666 
L 1259 0 
L 628 0 
L 628 4666 
z
" transform="scale(0.015625)"/>
       <path id="DejaVuSans-6e" d="M 3513 2113 
L 3513 0 
L 2938 0 
L 2938 2094 
Q 2938 2591 2744 2837 
Q 2550 3084 2163 3084 
Q 1697 3084 1428 2787 
Q 1159 2491 1159 1978 
L 1159 0 
L 581 0 
L 581 3500 
L 1159 3500 
L 1159 2956 
Q 1366 3272 1645 3428 
Q 1925 3584 2291 3584 
Q 2894 3584 3203 3211 
Q 3513 2838 3513 2113 
z
" transform="scale(0.015625)"/>
       <path id="DejaVuSans-46" d="M 628 4666 
L 3309 4666 
L 3309 4134 
L 1259 4134 
L 1259 2759 
L 3109 2759 
L 3109 2228 
L 1259 2228 
L 1259 0 
L 628 0 
L 628 4666 
z
" transform="scale(0.015625)"/>
       <path id="DejaVuSans-78" d="M 3513 3500 
L 2247 1797 
L 3578 0 
L 2900 0 
L 1881 1375 
L 863 0 
L 184 0 
L 1544 1831 
L 300 3500 
L 978 3500 
L 1906 2253 
L 2834 3500 
L 3513 3500 
z
" transform="scale(0.015625)"/>
      </defs>
      <use xlink:href="#DejaVuSans-49"/>
      <use xlink:href="#DejaVuSans-6e" x="29.492188"/>
      <use xlink:href="#DejaVuSans-46" x="92.871094"/>
      <use xlink:href="#DejaVuSans-6c" x="150.390625"/>
      <use xlink:href="#DejaVuSans-75" x="178.173828"/>
      <use xlink:href="#DejaVuSans-78" x="241.552734"/>
     </g>
    </g>
    <g id="line2d_26">
     <path d="M 475.355813 154.184062 
L 497.355813 154.184062 
L 519.355812 154.184062 
" style="fill: none; stroke: #c44e52; stroke-width: 3; stroke-linecap: round"/>
    </g>
    <g id="text_16">
     <!-- TimeScale -->
     <g style="fill: #262626" transform="translate(536.955812 161.884062) scale(0.22 -0.22)">
      <use xlink:href="#DejaVuSans-54"/>
      <use xlink:href="#DejaVuSans-69" x="57.958984"/>
      <use xlink:href="#DejaVuSans-6d" x="85.742188"/>
      <use xlink:href="#DejaVuSans-65" x="183.154297"/>
      <use xlink:href="#DejaVuSans-53" x="244.677734"/>
      <use xlink:href="#DejaVuSans-63" x="308.154297"/>
      <use xlink:href="#DejaVuSans-61" x="363.134766"/>
      <use xlink:href="#DejaVuSans-6c" x="424.414062"/>
      <use xlink:href="#DejaVuSans-65" x="452.197266"/>
     </g>
    </g>
    <g id="text_17">
     <!-- Mode -->
     <g style="fill: #262626" transform="translate(536.955812 194.175937) scale(0.22 -0.22)">
      <defs>
       <path id="DejaVuSans-64" d="M 2906 2969 
L 2906 4863 
L 3481 4863 
L 3481 0 
L 2906 0 
L 2906 525 
Q 2725 213 2448 61 
Q 2172 -91 1784 -91 
Q 1150 -91 751 415 
Q 353 922 353 1747 
Q 353 2572 751 3078 
Q 1150 3584 1784 3584 
Q 2172 3584 2448 3432 
Q 2725 3281 2906 2969 
z
M 947 1747 
Q 947 1113 1208 752 
Q 1469 391 1925 391 
Q 2381 391 2643 752 
Q 2906 1113 2906 1747 
Q 2906 2381 2643 2742 
Q 2381 3103 1925 3103 
Q 1469 3103 1208 2742 
Q 947 2381 947 1747 
z
" transform="scale(0.015625)"/>
      </defs>
      <use xlink:href="#DejaVuSans-4d"/>
      <use xlink:href="#DejaVuSans-6f" x="86.279297"/>
      <use xlink:href="#DejaVuSans-64" x="147.460938"/>
      <use xlink:href="#DejaVuSans-65" x="210.9375"/>
     </g>
    </g>
    <g id="line2d_27">
     <path d="M 475.355813 218.767812 
L 497.355813 218.767812 
L 519.355812 218.767812 
" style="fill: none; stroke: #333333; stroke-width: 3; stroke-linecap: round"/>
    </g>
    <g id="text_18">
     <!-- dedicated_irregular -->
     <g style="fill: #262626" transform="translate(536.955812 226.467812) scale(0.22 -0.22)">
      <defs>
       <path id="DejaVuSans-67" d="M 2906 1791 
Q 2906 2416 2648 2759 
Q 2391 3103 1925 3103 
Q 1463 3103 1205 2759 
Q 947 2416 947 1791 
Q 947 1169 1205 825 
Q 1463 481 1925 481 
Q 2391 481 2648 825 
Q 2906 1169 2906 1791 
z
M 3481 434 
Q 3481 -459 3084 -895 
Q 2688 -1331 1869 -1331 
Q 1566 -1331 1297 -1286 
Q 1028 -1241 775 -1147 
L 775 -588 
Q 1028 -725 1275 -790 
Q 1522 -856 1778 -856 
Q 2344 -856 2625 -561 
Q 2906 -266 2906 331 
L 2906 616 
Q 2728 306 2450 153 
Q 2172 0 1784 0 
Q 1141 0 747 490 
Q 353 981 353 1791 
Q 353 2603 747 3093 
Q 1141 3584 1784 3584 
Q 2172 3584 2450 3431 
Q 2728 3278 2906 2969 
L 2906 3500 
L 3481 3500 
L 3481 434 
z
" transform="scale(0.015625)"/>
      </defs>
      <use xlink:href="#DejaVuSans-64"/>
      <use xlink:href="#DejaVuSans-65" x="63.476562"/>
      <use xlink:href="#DejaVuSans-64" x="125"/>
      <use xlink:href="#DejaVuSans-69" x="188.476562"/>
      <use xlink:href="#DejaVuSans-63" x="216.259766"/>
      <use xlink:href="#DejaVuSans-61" x="271.240234"/>
      <use xlink:href="#DejaVuSans-74" x="332.519531"/>
      <use xlink:href="#DejaVuSans-65" x="371.728516"/>
      <use xlink:href="#DejaVuSans-64" x="433.251953"/>
      <use xlink:href="#DejaVuSans-5f" x="496.728516"/>
      <use xlink:href="#DejaVuSans-69" x="546.728516"/>
      <use xlink:href="#DejaVuSans-72" x="574.511719"/>
      <use xlink:href="#DejaVuSans-72" x="613.875"/>
      <use xlink:href="#DejaVuSans-65" x="652.738281"/>
      <use xlink:href="#DejaVuSans-67" x="714.261719"/>
      <use xlink:href="#DejaVuSans-75" x="777.738281"/>
      <use xlink:href="#DejaVuSans-6c" x="841.117188"/>
      <use xlink:href="#DejaVuSans-61" x="868.900391"/>
      <use xlink:href="#DejaVuSans-72" x="930.179688"/>
     </g>
    </g>
    <g id="line2d_28">
     <path d="M 475.355813 251.671562 
L 497.355813 251.671562 
L 519.355812 251.671562 
" style="fill: none; stroke-dasharray: 12,4.5; stroke-dashoffset: 0; stroke: #333333; stroke-width: 3"/>
    </g>
    <g id="text_19">
     <!-- dedicated_regular -->
     <g style="fill: #262626" transform="translate(536.955812 259.371562) scale(0.22 -0.22)">
      <use xlink:href="#DejaVuSans-64"/>
      <use xlink:href="#DejaVuSans-65" x="63.476562"/>
      <use xlink:href="#DejaVuSans-64" x="125"/>
      <use xlink:href="#DejaVuSans-69" x="188.476562"/>
      <use xlink:href="#DejaVuSans-63" x="216.259766"/>
      <use xlink:href="#DejaVuSans-61" x="271.240234"/>
      <use xlink:href="#DejaVuSans-74" x="332.519531"/>
      <use xlink:href="#DejaVuSans-65" x="371.728516"/>
      <use xlink:href="#DejaVuSans-64" x="433.251953"/>
      <use xlink:href="#DejaVuSans-5f" x="496.728516"/>
      <use xlink:href="#DejaVuSans-72" x="546.728516"/>
      <use xlink:href="#DejaVuSans-65" x="585.591797"/>
      <use xlink:href="#DejaVuSans-67" x="647.115234"/>
      <use xlink:href="#DejaVuSans-75" x="710.591797"/>
      <use xlink:href="#DejaVuSans-6c" x="773.970703"/>
      <use xlink:href="#DejaVuSans-61" x="801.753906"/>
      <use xlink:href="#DejaVuSans-72" x="863.033203"/>
     </g>
    </g>
   </g>
  </g>
 </g>
 <defs>
  <clipPath id="p6371cc5b04">
   <rect x="91.92" y="7.223375" width="357.12" height="266.112"/>
  </clipPath>
 </defs>
</svg>
